<mxfile host="Electron" modified="2023-04-20T08:00:15.007Z" agent="Mozilla/5.0 (Windows NT 10.0; Win64; x64) AppleWebKit/537.36 (KHTML, like Gecko) draw.io/21.1.2 Chrome/106.0.5249.199 Electron/21.4.3 Safari/537.36" etag="UKUV_1Us495V7sxetIrX" version="21.1.2" type="device" pages="5">
  <diagram id="8ADdsiHMEylGO0u7M-aS" name="level 0">
    <mxGraphModel dx="2736" dy="614" grid="1" gridSize="10" guides="1" tooltips="1" connect="1" arrows="1" fold="1" page="1" pageScale="1" pageWidth="1700" pageHeight="1100" math="0" shadow="0">
      <root>
        <mxCell id="0" />
        <mxCell id="1" parent="0" />
        <mxCell id="wY4W5L_KyrM1qTeG1Z5V-9" value="0" style="swimlane;fillColor=#dae8fc;strokeColor=#6c8ebf;" parent="1" vertex="1">
          <mxGeometry x="120" y="360" width="160" height="80" as="geometry" />
        </mxCell>
        <mxCell id="wY4W5L_KyrM1qTeG1Z5V-10" value="Automated Road Accident Monitoring and Alarm System&amp;nbsp;" style="text;html=1;strokeColor=#6c8ebf;fillColor=#dae8fc;align=center;verticalAlign=middle;whiteSpace=wrap;rounded=0;" parent="wY4W5L_KyrM1qTeG1Z5V-9" vertex="1">
          <mxGeometry y="20" width="160" height="60" as="geometry" />
        </mxCell>
        <mxCell id="wY4W5L_KyrM1qTeG1Z5V-13" value="Monitoring Team" style="rounded=0;whiteSpace=wrap;html=1;fillColor=#f5f5f5;strokeColor=#666666;fontColor=#333333;" parent="1" vertex="1">
          <mxGeometry x="120" y="200" width="160" height="80" as="geometry" />
        </mxCell>
        <mxCell id="EQ1NW8W74IFiUwXJWNLA-1" value="1.0" style="swimlane;fillColor=#e1d5e7;strokeColor=#9673a6;" parent="1" vertex="1">
          <mxGeometry x="360" y="360" width="160" height="80" as="geometry" />
        </mxCell>
        <mxCell id="EQ1NW8W74IFiUwXJWNLA-2" value="Graphical User Interface" style="text;html=1;strokeColor=#9673a6;fillColor=#e1d5e7;align=center;verticalAlign=middle;whiteSpace=wrap;rounded=0;" parent="EQ1NW8W74IFiUwXJWNLA-1" vertex="1">
          <mxGeometry y="20" width="160" height="60" as="geometry" />
        </mxCell>
        <mxCell id="EQ1NW8W74IFiUwXJWNLA-3" value="2.0" style="swimlane;fillColor=#fff2cc;strokeColor=#d6b656;" parent="1" vertex="1">
          <mxGeometry x="600" y="360" width="160" height="80" as="geometry" />
        </mxCell>
        <mxCell id="EQ1NW8W74IFiUwXJWNLA-4" value="Multiple Footage Monitoring" style="text;html=1;strokeColor=#d6b656;fillColor=#fff2cc;align=center;verticalAlign=middle;whiteSpace=wrap;rounded=0;" parent="EQ1NW8W74IFiUwXJWNLA-3" vertex="1">
          <mxGeometry y="20" width="160" height="60" as="geometry" />
        </mxCell>
        <mxCell id="OrtaLChPkD9cHsrEivuQ-1" value="" style="endArrow=classic;html=1;entryX=0.25;entryY=1;entryDx=0;entryDy=0;exitX=0.25;exitY=0;exitDx=0;exitDy=0;" parent="1" source="wY4W5L_KyrM1qTeG1Z5V-9" target="wY4W5L_KyrM1qTeG1Z5V-13" edge="1">
          <mxGeometry width="50" height="50" relative="1" as="geometry">
            <mxPoint x="400" y="420" as="sourcePoint" />
            <mxPoint x="450" y="370" as="targetPoint" />
          </mxGeometry>
        </mxCell>
        <mxCell id="OrtaLChPkD9cHsrEivuQ-2" value="" style="endArrow=classic;html=1;exitX=0.75;exitY=1;exitDx=0;exitDy=0;entryX=0.75;entryY=0;entryDx=0;entryDy=0;" parent="1" source="wY4W5L_KyrM1qTeG1Z5V-13" target="wY4W5L_KyrM1qTeG1Z5V-9" edge="1">
          <mxGeometry width="50" height="50" relative="1" as="geometry">
            <mxPoint x="400" y="420" as="sourcePoint" />
            <mxPoint x="450" y="370" as="targetPoint" />
          </mxGeometry>
        </mxCell>
        <mxCell id="OrtaLChPkD9cHsrEivuQ-3" value="Footage Information" style="text;html=1;strokeColor=none;align=center;verticalAlign=middle;whiteSpace=wrap;rounded=0;fillColor=#ffffff;" parent="1" vertex="1">
          <mxGeometry x="70" y="310" width="90" height="20" as="geometry" />
        </mxCell>
        <mxCell id="OrtaLChPkD9cHsrEivuQ-6" value="Footage Assignments" style="text;html=1;strokeColor=none;fillColor=none;align=center;verticalAlign=middle;whiteSpace=wrap;rounded=0;" parent="1" vertex="1">
          <mxGeometry x="280" y="380" width="80" height="20" as="geometry" />
        </mxCell>
        <mxCell id="OrtaLChPkD9cHsrEivuQ-7" value="3.0" style="swimlane;fillColor=#f8cecc;strokeColor=#b85450;" parent="1" vertex="1">
          <mxGeometry x="-120" y="360" width="160" height="80" as="geometry" />
        </mxCell>
        <mxCell id="OrtaLChPkD9cHsrEivuQ-8" value="Alarm and Alert Notification" style="text;html=1;strokeColor=#b85450;fillColor=#f8cecc;align=center;verticalAlign=middle;whiteSpace=wrap;rounded=0;" parent="OrtaLChPkD9cHsrEivuQ-7" vertex="1">
          <mxGeometry y="20" width="160" height="60" as="geometry" />
        </mxCell>
        <mxCell id="OrtaLChPkD9cHsrEivuQ-9" value="" style="endArrow=classic;html=1;entryX=1;entryY=0.5;entryDx=0;entryDy=0;exitX=0.5;exitY=0;exitDx=0;exitDy=0;rounded=0;" parent="1" source="EQ1NW8W74IFiUwXJWNLA-1" target="wY4W5L_KyrM1qTeG1Z5V-13" edge="1">
          <mxGeometry width="50" height="50" relative="1" as="geometry">
            <mxPoint x="420" y="340" as="sourcePoint" />
            <mxPoint x="470" y="290" as="targetPoint" />
            <Array as="points">
              <mxPoint x="440" y="240" />
            </Array>
          </mxGeometry>
        </mxCell>
        <mxCell id="OrtaLChPkD9cHsrEivuQ-10" value="Monitoring Result" style="text;html=1;strokeColor=none;fillColor=none;align=center;verticalAlign=middle;whiteSpace=wrap;rounded=0;" parent="1" vertex="1">
          <mxGeometry x="320" y="220" width="100" height="20" as="geometry" />
        </mxCell>
        <mxCell id="OrtaLChPkD9cHsrEivuQ-11" value="" style="endArrow=classic;html=1;entryX=1;entryY=0.5;entryDx=0;entryDy=0;exitX=0;exitY=0.5;exitDx=0;exitDy=0;" parent="1" source="wY4W5L_KyrM1qTeG1Z5V-10" target="OrtaLChPkD9cHsrEivuQ-8" edge="1">
          <mxGeometry width="50" height="50" relative="1" as="geometry">
            <mxPoint x="50" y="495" as="sourcePoint" />
            <mxPoint x="100" y="445" as="targetPoint" />
          </mxGeometry>
        </mxCell>
        <mxCell id="OrtaLChPkD9cHsrEivuQ-12" value="Detection Signal" style="text;html=1;strokeColor=none;fillColor=none;align=center;verticalAlign=middle;whiteSpace=wrap;rounded=0;" parent="1" vertex="1">
          <mxGeometry x="60" y="380" width="40" height="20" as="geometry" />
        </mxCell>
        <mxCell id="OrtaLChPkD9cHsrEivuQ-13" value="" style="endArrow=classic;html=1;entryX=1;entryY=0.25;entryDx=0;entryDy=0;exitX=0;exitY=0;exitDx=0;exitDy=0;" parent="1" source="EQ1NW8W74IFiUwXJWNLA-4" target="EQ1NW8W74IFiUwXJWNLA-1" edge="1">
          <mxGeometry width="50" height="50" relative="1" as="geometry">
            <mxPoint x="510" y="300" as="sourcePoint" />
            <mxPoint x="560" y="250" as="targetPoint" />
          </mxGeometry>
        </mxCell>
        <mxCell id="OrtaLChPkD9cHsrEivuQ-14" value="" style="endArrow=classic;html=1;entryX=0;entryY=0.5;entryDx=0;entryDy=0;exitX=1;exitY=0.5;exitDx=0;exitDy=0;" parent="1" source="wY4W5L_KyrM1qTeG1Z5V-10" target="EQ1NW8W74IFiUwXJWNLA-2" edge="1">
          <mxGeometry width="50" height="50" relative="1" as="geometry">
            <mxPoint x="270" y="520" as="sourcePoint" />
            <mxPoint x="320" y="470" as="targetPoint" />
          </mxGeometry>
        </mxCell>
        <mxCell id="OrtaLChPkD9cHsrEivuQ-15" style="edgeStyle=orthogonalEdgeStyle;rounded=0;orthogonalLoop=1;jettySize=auto;html=1;exitX=0.5;exitY=1;exitDx=0;exitDy=0;" parent="1" source="OrtaLChPkD9cHsrEivuQ-6" target="OrtaLChPkD9cHsrEivuQ-6" edge="1">
          <mxGeometry relative="1" as="geometry" />
        </mxCell>
        <mxCell id="OrtaLChPkD9cHsrEivuQ-16" value="" style="endArrow=classic;html=1;entryX=0;entryY=0.75;entryDx=0;entryDy=0;exitX=1;exitY=0.75;exitDx=0;exitDy=0;" parent="1" source="EQ1NW8W74IFiUwXJWNLA-2" target="EQ1NW8W74IFiUwXJWNLA-4" edge="1">
          <mxGeometry width="50" height="50" relative="1" as="geometry">
            <mxPoint x="510" y="540" as="sourcePoint" />
            <mxPoint x="560" y="490" as="targetPoint" />
          </mxGeometry>
        </mxCell>
        <mxCell id="OrtaLChPkD9cHsrEivuQ-17" value="Footage" style="text;html=1;strokeColor=none;fillColor=none;align=center;verticalAlign=middle;whiteSpace=wrap;rounded=0;" parent="1" vertex="1">
          <mxGeometry x="520" y="400" width="80" height="20" as="geometry" />
        </mxCell>
        <mxCell id="OrtaLChPkD9cHsrEivuQ-18" value="Detection Result" style="text;html=1;strokeColor=none;fillColor=none;align=center;verticalAlign=middle;whiteSpace=wrap;rounded=0;" parent="1" vertex="1">
          <mxGeometry x="520" y="350" width="80" height="20" as="geometry" />
        </mxCell>
        <mxCell id="OrtaLChPkD9cHsrEivuQ-19" value="" style="endArrow=classic;html=1;entryX=0.5;entryY=1;entryDx=0;entryDy=0;exitX=0.5;exitY=1;exitDx=0;exitDy=0;rounded=0;" parent="1" source="EQ1NW8W74IFiUwXJWNLA-4" target="wY4W5L_KyrM1qTeG1Z5V-10" edge="1">
          <mxGeometry width="50" height="50" relative="1" as="geometry">
            <mxPoint x="330" y="480" as="sourcePoint" />
            <mxPoint x="380" y="430" as="targetPoint" />
            <Array as="points">
              <mxPoint x="680" y="480" />
              <mxPoint x="200" y="480" />
            </Array>
          </mxGeometry>
        </mxCell>
        <mxCell id="OrtaLChPkD9cHsrEivuQ-20" value="Detection Result" style="text;html=1;strokeColor=none;fillColor=none;align=center;verticalAlign=middle;whiteSpace=wrap;rounded=0;" parent="1" vertex="1">
          <mxGeometry x="380" y="460" width="140" height="20" as="geometry" />
        </mxCell>
        <mxCell id="OrtaLChPkD9cHsrEivuQ-21" value="Responders (DRRMO and Police Enforcers)" style="rounded=0;whiteSpace=wrap;html=1;fillColor=#f5f5f5;strokeColor=#666666;fontColor=#333333;" parent="1" vertex="1">
          <mxGeometry x="-120" y="520" width="160" height="80" as="geometry" />
        </mxCell>
        <mxCell id="OrtaLChPkD9cHsrEivuQ-23" value="Alarm Sound and Components Indicator" style="text;html=1;strokeColor=none;align=center;verticalAlign=middle;whiteSpace=wrap;rounded=0;fillColor=#ffffff;" parent="1" vertex="1">
          <mxGeometry x="-40" y="210" width="160" height="20" as="geometry" />
        </mxCell>
        <mxCell id="OrtaLChPkD9cHsrEivuQ-24" value="" style="edgeStyle=orthogonalEdgeStyle;rounded=0;orthogonalLoop=1;jettySize=auto;html=1;" parent="1" source="OrtaLChPkD9cHsrEivuQ-8" target="OrtaLChPkD9cHsrEivuQ-21" edge="1">
          <mxGeometry relative="1" as="geometry" />
        </mxCell>
        <mxCell id="OrtaLChPkD9cHsrEivuQ-25" value="" style="endArrow=classic;html=1;entryX=0;entryY=0.5;entryDx=0;entryDy=0;exitX=0.5;exitY=0;exitDx=0;exitDy=0;rounded=0;" parent="1" source="OrtaLChPkD9cHsrEivuQ-7" target="wY4W5L_KyrM1qTeG1Z5V-13" edge="1">
          <mxGeometry width="50" height="50" relative="1" as="geometry">
            <mxPoint x="180" y="410" as="sourcePoint" />
            <mxPoint x="230" y="360" as="targetPoint" />
            <Array as="points">
              <mxPoint x="-40" y="240" />
            </Array>
          </mxGeometry>
        </mxCell>
        <mxCell id="OrtaLChPkD9cHsrEivuQ-27" value="SMS and Alert Call Notification" style="text;html=1;strokeColor=none;align=center;verticalAlign=middle;whiteSpace=wrap;rounded=0;fillColor=#ffffff;" parent="1" vertex="1">
          <mxGeometry x="-140" y="470" width="100" height="20" as="geometry" />
        </mxCell>
      </root>
    </mxGraphModel>
  </diagram>
  <diagram id="r7n0W93i-bSW2ujSoCUL" name="level 1 - Des Opt 1 Chapt 3">
    <mxGraphModel dx="3122" dy="862" grid="1" gridSize="10" guides="1" tooltips="1" connect="1" arrows="1" fold="1" page="1" pageScale="1" pageWidth="1700" pageHeight="1100" math="0" shadow="0">
      <root>
        <mxCell id="PgIjCfwV615hUQNIiLhu-0" />
        <mxCell id="PgIjCfwV615hUQNIiLhu-1" parent="PgIjCfwV615hUQNIiLhu-0" />
        <mxCell id="uwYD7LTsbKZA4M0ucxSs-40" value="3.1" style="swimlane;fillColor=#f8cecc;strokeColor=#b85450;" parent="PgIjCfwV615hUQNIiLhu-1" vertex="1">
          <mxGeometry x="-20" y="1010" width="160" height="80" as="geometry" />
        </mxCell>
        <mxCell id="uwYD7LTsbKZA4M0ucxSs-41" value="Send SMS using Twilio API" style="text;html=1;strokeColor=#b85450;fillColor=#f8cecc;align=center;verticalAlign=middle;whiteSpace=wrap;rounded=0;" parent="uwYD7LTsbKZA4M0ucxSs-40" vertex="1">
          <mxGeometry y="20" width="160" height="60" as="geometry" />
        </mxCell>
        <mxCell id="uwYD7LTsbKZA4M0ucxSs-42" value="3.2" style="swimlane;fillColor=#f8cecc;strokeColor=#b85450;" parent="PgIjCfwV615hUQNIiLhu-1" vertex="1">
          <mxGeometry x="180" y="1010" width="160" height="80" as="geometry" />
        </mxCell>
        <mxCell id="uwYD7LTsbKZA4M0ucxSs-43" value="Arduino Uno R3 Configuration" style="text;html=1;strokeColor=#b85450;fillColor=#f8cecc;align=center;verticalAlign=middle;whiteSpace=wrap;rounded=0;" parent="uwYD7LTsbKZA4M0ucxSs-42" vertex="1">
          <mxGeometry y="20" width="160" height="60" as="geometry" />
        </mxCell>
        <mxCell id="uwYD7LTsbKZA4M0ucxSs-44" value="3.3" style="swimlane;fillColor=#f8cecc;strokeColor=#b85450;" parent="PgIjCfwV615hUQNIiLhu-1" vertex="1">
          <mxGeometry x="180" y="1170" width="160" height="80" as="geometry" />
        </mxCell>
        <mxCell id="uwYD7LTsbKZA4M0ucxSs-45" value="Hardware Components Execution" style="text;html=1;strokeColor=#b85450;fillColor=#f8cecc;align=center;verticalAlign=middle;whiteSpace=wrap;rounded=0;" parent="uwYD7LTsbKZA4M0ucxSs-44" vertex="1">
          <mxGeometry y="20" width="160" height="60" as="geometry" />
        </mxCell>
        <mxCell id="uwYD7LTsbKZA4M0ucxSs-86" value="" style="endArrow=none;html=1;entryX=0.5;entryY=1;entryDx=0;entryDy=0;" parent="PgIjCfwV615hUQNIiLhu-1" edge="1">
          <mxGeometry width="50" height="50" relative="1" as="geometry">
            <mxPoint x="160" y="970" as="sourcePoint" />
            <mxPoint x="160" y="930" as="targetPoint" />
          </mxGeometry>
        </mxCell>
        <mxCell id="uwYD7LTsbKZA4M0ucxSs-87" value="" style="endArrow=none;html=1;" parent="PgIjCfwV615hUQNIiLhu-1" edge="1">
          <mxGeometry width="50" height="50" relative="1" as="geometry">
            <mxPoint x="60" y="970" as="sourcePoint" />
            <mxPoint x="260" y="970" as="targetPoint" />
          </mxGeometry>
        </mxCell>
        <mxCell id="uwYD7LTsbKZA4M0ucxSs-88" value="" style="endArrow=classic;html=1;entryX=0.5;entryY=0;entryDx=0;entryDy=0;" parent="PgIjCfwV615hUQNIiLhu-1" target="uwYD7LTsbKZA4M0ucxSs-42" edge="1">
          <mxGeometry width="50" height="50" relative="1" as="geometry">
            <mxPoint x="260" y="970" as="sourcePoint" />
            <mxPoint x="260" y="850" as="targetPoint" />
          </mxGeometry>
        </mxCell>
        <mxCell id="uwYD7LTsbKZA4M0ucxSs-89" value="" style="endArrow=classic;html=1;entryX=0.5;entryY=0;entryDx=0;entryDy=0;" parent="PgIjCfwV615hUQNIiLhu-1" target="uwYD7LTsbKZA4M0ucxSs-40" edge="1">
          <mxGeometry width="50" height="50" relative="1" as="geometry">
            <mxPoint x="60" y="970" as="sourcePoint" />
            <mxPoint x="260" y="850" as="targetPoint" />
          </mxGeometry>
        </mxCell>
        <mxCell id="Zv5bo-a6gjeLMS0r8OGn-0" value="" style="endArrow=classic;html=1;entryX=0;entryY=0.375;entryDx=0;entryDy=0;exitX=0;exitY=0.5;exitDx=0;exitDy=0;rounded=0;entryPerimeter=0;" parent="PgIjCfwV615hUQNIiLhu-1" source="uwYD7LTsbKZA4M0ucxSs-45" target="MMopxej9NHXWVqP1xw_C-33" edge="1">
          <mxGeometry width="50" height="50" relative="1" as="geometry">
            <mxPoint x="-120" y="1060" as="sourcePoint" />
            <mxPoint x="-400" y="560" as="targetPoint" />
            <Array as="points">
              <mxPoint x="-480" y="1220" />
              <mxPoint x="-480" y="560" />
            </Array>
          </mxGeometry>
        </mxCell>
        <mxCell id="Zv5bo-a6gjeLMS0r8OGn-8" value="" style="endArrow=classic;html=1;entryX=0.5;entryY=0;entryDx=0;entryDy=0;exitX=0.5;exitY=1;exitDx=0;exitDy=0;" parent="PgIjCfwV615hUQNIiLhu-1" source="uwYD7LTsbKZA4M0ucxSs-43" target="uwYD7LTsbKZA4M0ucxSs-44" edge="1">
          <mxGeometry width="50" height="50" relative="1" as="geometry">
            <mxPoint x="230" y="1080" as="sourcePoint" />
            <mxPoint x="280" y="1030" as="targetPoint" />
          </mxGeometry>
        </mxCell>
        <mxCell id="Zv5bo-a6gjeLMS0r8OGn-9" value="Test User" style="rounded=0;whiteSpace=wrap;html=1;fillColor=#f5f5f5;strokeColor=#666666;fontColor=#333333;" parent="PgIjCfwV615hUQNIiLhu-1" vertex="1">
          <mxGeometry x="-260" y="1010" width="160" height="80" as="geometry" />
        </mxCell>
        <mxCell id="Zv5bo-a6gjeLMS0r8OGn-10" value="" style="endArrow=classic;html=1;entryX=1;entryY=0.5;entryDx=0;entryDy=0;exitX=0;exitY=0.5;exitDx=0;exitDy=0;" parent="PgIjCfwV615hUQNIiLhu-1" source="uwYD7LTsbKZA4M0ucxSs-40" target="Zv5bo-a6gjeLMS0r8OGn-9" edge="1">
          <mxGeometry width="50" height="50" relative="1" as="geometry">
            <mxPoint x="-40" y="1100" as="sourcePoint" />
            <mxPoint y="920" as="targetPoint" />
          </mxGeometry>
        </mxCell>
        <mxCell id="Zv5bo-a6gjeLMS0r8OGn-11" value="Detection Details and Result" style="text;html=1;strokeColor=none;align=center;verticalAlign=middle;whiteSpace=wrap;rounded=0;fillColor=#ffffff;" parent="PgIjCfwV615hUQNIiLhu-1" vertex="1">
          <mxGeometry x="80" y="940" width="160" height="20" as="geometry" />
        </mxCell>
        <mxCell id="Zv5bo-a6gjeLMS0r8OGn-13" value="Detection Signal" style="text;html=1;strokeColor=none;align=center;verticalAlign=middle;whiteSpace=wrap;rounded=0;fillColor=#ffffff;" parent="PgIjCfwV615hUQNIiLhu-1" vertex="1">
          <mxGeometry x="200" y="1110" width="120" height="20" as="geometry" />
        </mxCell>
        <mxCell id="Zv5bo-a6gjeLMS0r8OGn-14" value="SMS Message" style="text;html=1;strokeColor=none;fillColor=none;align=center;verticalAlign=middle;whiteSpace=wrap;rounded=0;" parent="PgIjCfwV615hUQNIiLhu-1" vertex="1">
          <mxGeometry x="-100" y="1020" width="80" height="20" as="geometry" />
        </mxCell>
        <mxCell id="jVeUjFjlQP0OS_WaRk6g-0" value="Alarm Sound and Components Indicator" style="text;html=1;strokeColor=none;align=center;verticalAlign=middle;whiteSpace=wrap;rounded=0;fillColor=#ffffff;" parent="PgIjCfwV615hUQNIiLhu-1" vertex="1">
          <mxGeometry x="-260" y="1190" width="160" height="20" as="geometry" />
        </mxCell>
        <mxCell id="MMopxej9NHXWVqP1xw_C-28" value="1.1" style="swimlane;fillColor=#e1d5e7;strokeColor=#9673a6;" parent="PgIjCfwV615hUQNIiLhu-1" vertex="1">
          <mxGeometry x="-390" y="690" width="160" height="80" as="geometry" />
        </mxCell>
        <mxCell id="MMopxej9NHXWVqP1xw_C-29" value="Footage Preprocessing" style="text;html=1;strokeColor=#9673a6;fillColor=#e1d5e7;align=center;verticalAlign=middle;whiteSpace=wrap;rounded=0;" parent="MMopxej9NHXWVqP1xw_C-28" vertex="1">
          <mxGeometry y="20" width="160" height="60" as="geometry" />
        </mxCell>
        <mxCell id="MMopxej9NHXWVqP1xw_C-30" value="2.1" style="swimlane;fillColor=#fff2cc;strokeColor=#d6b656;" parent="PgIjCfwV615hUQNIiLhu-1" vertex="1">
          <mxGeometry x="90" y="687.5" width="160" height="82.5" as="geometry" />
        </mxCell>
        <mxCell id="MMopxej9NHXWVqP1xw_C-31" value="Accident Detection Using VGG-19" style="text;html=1;strokeColor=#d6b656;fillColor=#fff2cc;align=center;verticalAlign=middle;whiteSpace=wrap;rounded=0;" parent="MMopxej9NHXWVqP1xw_C-30" vertex="1">
          <mxGeometry y="22.5" width="160" height="60" as="geometry" />
        </mxCell>
        <mxCell id="MMopxej9NHXWVqP1xw_C-32" value="Raw Footage" style="text;html=1;strokeColor=none;fillColor=none;align=center;verticalAlign=middle;whiteSpace=wrap;rounded=0;" parent="PgIjCfwV615hUQNIiLhu-1" vertex="1">
          <mxGeometry x="-70" y="640" width="80" height="20" as="geometry" />
        </mxCell>
        <mxCell id="MMopxej9NHXWVqP1xw_C-33" value="User" style="rounded=0;whiteSpace=wrap;html=1;fillColor=#f5f5f5;strokeColor=#666666;fontColor=#333333;" parent="PgIjCfwV615hUQNIiLhu-1" vertex="1">
          <mxGeometry x="-390" y="530" width="160" height="80" as="geometry" />
        </mxCell>
        <mxCell id="MMopxej9NHXWVqP1xw_C-34" value="" style="rounded=0;whiteSpace=wrap;html=1;" parent="PgIjCfwV615hUQNIiLhu-1" vertex="1">
          <mxGeometry x="-160" y="690" width="160" height="80" as="geometry" />
        </mxCell>
        <mxCell id="MMopxej9NHXWVqP1xw_C-35" value="" style="endArrow=none;html=1;entryX=0.25;entryY=0;entryDx=0;entryDy=0;exitX=0.25;exitY=1;exitDx=0;exitDy=0;" parent="PgIjCfwV615hUQNIiLhu-1" source="MMopxej9NHXWVqP1xw_C-34" target="MMopxej9NHXWVqP1xw_C-34" edge="1">
          <mxGeometry width="50" height="50" relative="1" as="geometry">
            <mxPoint x="340" y="850" as="sourcePoint" />
            <mxPoint x="390" y="800" as="targetPoint" />
          </mxGeometry>
        </mxCell>
        <mxCell id="MMopxej9NHXWVqP1xw_C-36" value="Footage" style="text;html=1;strokeColor=#82b366;fillColor=#d5e8d4;align=center;verticalAlign=middle;whiteSpace=wrap;rounded=0;" parent="PgIjCfwV615hUQNIiLhu-1" vertex="1">
          <mxGeometry x="-120" y="690" width="120" height="80" as="geometry" />
        </mxCell>
        <mxCell id="MMopxej9NHXWVqP1xw_C-37" value="D" style="text;html=1;strokeColor=#82b366;fillColor=#d5e8d4;align=center;verticalAlign=middle;whiteSpace=wrap;rounded=0;" parent="PgIjCfwV615hUQNIiLhu-1" vertex="1">
          <mxGeometry x="-160" y="690" width="40" height="80" as="geometry" />
        </mxCell>
        <mxCell id="MMopxej9NHXWVqP1xw_C-38" value="Footage Information" style="text;html=1;strokeColor=none;fillColor=none;align=center;verticalAlign=middle;whiteSpace=wrap;rounded=0;" parent="PgIjCfwV615hUQNIiLhu-1" vertex="1">
          <mxGeometry x="-230" y="680" width="80" height="20" as="geometry" />
        </mxCell>
        <mxCell id="MMopxej9NHXWVqP1xw_C-39" value="Preprocessed Frames" style="text;html=1;strokeColor=none;fillColor=none;align=center;verticalAlign=middle;whiteSpace=wrap;rounded=0;" parent="PgIjCfwV615hUQNIiLhu-1" vertex="1">
          <mxGeometry x="10" y="700" width="80" height="20" as="geometry" />
        </mxCell>
        <mxCell id="MMopxej9NHXWVqP1xw_C-40" value="Extracted and Reshaped Frames" style="text;html=1;strokeColor=none;fillColor=none;align=center;verticalAlign=middle;whiteSpace=wrap;rounded=0;fontSize=10;" parent="PgIjCfwV615hUQNIiLhu-1" vertex="1">
          <mxGeometry x="-230" y="760" width="70" height="40" as="geometry" />
        </mxCell>
        <mxCell id="MMopxej9NHXWVqP1xw_C-41" value="" style="rounded=0;whiteSpace=wrap;html=1;" parent="PgIjCfwV615hUQNIiLhu-1" vertex="1">
          <mxGeometry x="90" y="850" width="160" height="80" as="geometry" />
        </mxCell>
        <mxCell id="MMopxej9NHXWVqP1xw_C-42" value="" style="endArrow=none;html=1;entryX=0.25;entryY=0;entryDx=0;entryDy=0;exitX=0.25;exitY=1;exitDx=0;exitDy=0;" parent="PgIjCfwV615hUQNIiLhu-1" source="MMopxej9NHXWVqP1xw_C-41" target="MMopxej9NHXWVqP1xw_C-41" edge="1">
          <mxGeometry width="50" height="50" relative="1" as="geometry">
            <mxPoint x="590" y="1010" as="sourcePoint" />
            <mxPoint x="640" y="960" as="targetPoint" />
          </mxGeometry>
        </mxCell>
        <mxCell id="MMopxej9NHXWVqP1xw_C-43" value="Temporary Detection Result" style="text;html=1;strokeColor=#82b366;fillColor=#d5e8d4;align=center;verticalAlign=middle;whiteSpace=wrap;rounded=0;" parent="PgIjCfwV615hUQNIiLhu-1" vertex="1">
          <mxGeometry x="130" y="850" width="120" height="80" as="geometry" />
        </mxCell>
        <mxCell id="MMopxej9NHXWVqP1xw_C-44" value="T" style="text;html=1;strokeColor=#82b366;fillColor=#d5e8d4;align=center;verticalAlign=middle;whiteSpace=wrap;rounded=0;" parent="PgIjCfwV615hUQNIiLhu-1" vertex="1">
          <mxGeometry x="90" y="850" width="40" height="80" as="geometry" />
        </mxCell>
        <mxCell id="MMopxej9NHXWVqP1xw_C-45" value="Detection Confidence Score" style="text;html=1;strokeColor=none;fillColor=none;align=center;verticalAlign=middle;whiteSpace=wrap;rounded=0;" parent="PgIjCfwV615hUQNIiLhu-1" vertex="1">
          <mxGeometry x="170" y="800" width="80" height="20" as="geometry" />
        </mxCell>
        <mxCell id="MMopxej9NHXWVqP1xw_C-46" value="0" style="swimlane;fillColor=#dae8fc;strokeColor=#6c8ebf;" parent="PgIjCfwV615hUQNIiLhu-1" vertex="1">
          <mxGeometry x="-150" y="530" width="160" height="80" as="geometry" />
        </mxCell>
        <mxCell id="MMopxej9NHXWVqP1xw_C-47" value="Automated Road Accident Monitoring and Alarm System&amp;nbsp;" style="text;html=1;strokeColor=#6c8ebf;fillColor=#dae8fc;align=center;verticalAlign=middle;whiteSpace=wrap;rounded=0;" parent="MMopxej9NHXWVqP1xw_C-46" vertex="1">
          <mxGeometry y="20" width="160" height="60" as="geometry" />
        </mxCell>
        <mxCell id="MMopxej9NHXWVqP1xw_C-48" value="" style="endArrow=classic;html=1;exitX=0.5;exitY=1;exitDx=0;exitDy=0;" parent="PgIjCfwV615hUQNIiLhu-1" source="MMopxej9NHXWVqP1xw_C-47" edge="1">
          <mxGeometry width="50" height="50" relative="1" as="geometry">
            <mxPoint x="50" y="550" as="sourcePoint" />
            <mxPoint x="-70" y="690" as="targetPoint" />
          </mxGeometry>
        </mxCell>
        <mxCell id="MMopxej9NHXWVqP1xw_C-49" value="" style="endArrow=classic;html=1;exitX=1;exitY=0.25;exitDx=0;exitDy=0;entryX=0;entryY=0;entryDx=0;entryDy=0;" parent="PgIjCfwV615hUQNIiLhu-1" source="MMopxej9NHXWVqP1xw_C-33" target="MMopxej9NHXWVqP1xw_C-47" edge="1">
          <mxGeometry width="50" height="50" relative="1" as="geometry">
            <mxPoint x="-70" y="520" as="sourcePoint" />
            <mxPoint x="-20" y="470" as="targetPoint" />
          </mxGeometry>
        </mxCell>
        <mxCell id="MMopxej9NHXWVqP1xw_C-50" value="" style="endArrow=classic;html=1;entryX=1;entryY=0.75;entryDx=0;entryDy=0;exitX=0;exitY=0.75;exitDx=0;exitDy=0;" parent="PgIjCfwV615hUQNIiLhu-1" source="MMopxej9NHXWVqP1xw_C-46" target="MMopxej9NHXWVqP1xw_C-33" edge="1">
          <mxGeometry width="50" height="50" relative="1" as="geometry">
            <mxPoint x="-180" y="590" as="sourcePoint" />
            <mxPoint x="-20" y="470" as="targetPoint" />
          </mxGeometry>
        </mxCell>
        <mxCell id="MMopxej9NHXWVqP1xw_C-51" value="Footage" style="text;html=1;strokeColor=none;align=center;verticalAlign=middle;whiteSpace=wrap;rounded=0;fillColor=#ffffff;" parent="PgIjCfwV615hUQNIiLhu-1" vertex="1">
          <mxGeometry x="-230" y="520" width="80" height="20" as="geometry" />
        </mxCell>
        <mxCell id="MMopxej9NHXWVqP1xw_C-52" value="" style="endArrow=classic;html=1;exitX=1;exitY=0.5;exitDx=0;exitDy=0;entryX=0;entryY=0.5;entryDx=0;entryDy=0;" parent="PgIjCfwV615hUQNIiLhu-1" source="MMopxej9NHXWVqP1xw_C-36" target="MMopxej9NHXWVqP1xw_C-30" edge="1">
          <mxGeometry width="50" height="50" relative="1" as="geometry">
            <mxPoint x="150" y="830" as="sourcePoint" />
            <mxPoint x="330" y="790" as="targetPoint" />
          </mxGeometry>
        </mxCell>
        <mxCell id="MMopxej9NHXWVqP1xw_C-53" value="" style="endArrow=classic;html=1;entryX=0.5;entryY=0;entryDx=0;entryDy=0;exitX=0.5;exitY=1;exitDx=0;exitDy=0;" parent="PgIjCfwV615hUQNIiLhu-1" source="MMopxej9NHXWVqP1xw_C-31" target="MMopxej9NHXWVqP1xw_C-41" edge="1">
          <mxGeometry width="50" height="50" relative="1" as="geometry">
            <mxPoint x="120" y="810" as="sourcePoint" />
            <mxPoint x="180" y="800" as="targetPoint" />
          </mxGeometry>
        </mxCell>
        <mxCell id="MMopxej9NHXWVqP1xw_C-54" value="" style="endArrow=classic;html=1;entryX=1;entryY=0.25;entryDx=0;entryDy=0;exitX=0;exitY=0.25;exitDx=0;exitDy=0;" parent="PgIjCfwV615hUQNIiLhu-1" source="MMopxej9NHXWVqP1xw_C-37" target="MMopxej9NHXWVqP1xw_C-28" edge="1">
          <mxGeometry width="50" height="50" relative="1" as="geometry">
            <mxPoint x="-220" y="810" as="sourcePoint" />
            <mxPoint x="-170" y="760" as="targetPoint" />
          </mxGeometry>
        </mxCell>
        <mxCell id="MMopxej9NHXWVqP1xw_C-55" value="" style="endArrow=classic;html=1;entryX=0;entryY=0.75;entryDx=0;entryDy=0;exitX=1;exitY=0.75;exitDx=0;exitDy=0;" parent="PgIjCfwV615hUQNIiLhu-1" source="MMopxej9NHXWVqP1xw_C-28" target="MMopxej9NHXWVqP1xw_C-37" edge="1">
          <mxGeometry width="50" height="50" relative="1" as="geometry">
            <mxPoint x="-220" y="810" as="sourcePoint" />
            <mxPoint x="-170" y="760" as="targetPoint" />
          </mxGeometry>
        </mxCell>
      </root>
    </mxGraphModel>
  </diagram>
  <diagram name="level 1 - Des Opt 2 Chapt 3" id="BJm9Q0MgWKwtytCMTGrm">
    <mxGraphModel dx="2736" dy="614" grid="1" gridSize="10" guides="1" tooltips="1" connect="1" arrows="1" fold="1" page="1" pageScale="1" pageWidth="1700" pageHeight="1100" math="0" shadow="0">
      <root>
        <mxCell id="u746MVQ_HOCovymhsIOf-0" />
        <mxCell id="u746MVQ_HOCovymhsIOf-1" parent="u746MVQ_HOCovymhsIOf-0" />
        <mxCell id="u746MVQ_HOCovymhsIOf-10" value="3.2" style="swimlane;fillColor=#f8cecc;strokeColor=#b85450;" parent="u746MVQ_HOCovymhsIOf-1" vertex="1">
          <mxGeometry x="-160" y="1000" width="160" height="80" as="geometry" />
        </mxCell>
        <mxCell id="u746MVQ_HOCovymhsIOf-11" value="Send SMS and Alert Call using SIM800L" style="text;html=1;strokeColor=#b85450;fillColor=#f8cecc;align=center;verticalAlign=middle;whiteSpace=wrap;rounded=0;" parent="u746MVQ_HOCovymhsIOf-10" vertex="1">
          <mxGeometry y="20" width="160" height="60" as="geometry" />
        </mxCell>
        <mxCell id="u746MVQ_HOCovymhsIOf-12" value="3.1" style="swimlane;fillColor=#f8cecc;strokeColor=#b85450;" parent="u746MVQ_HOCovymhsIOf-1" vertex="1">
          <mxGeometry x="80" y="1000" width="160" height="80" as="geometry" />
        </mxCell>
        <mxCell id="u746MVQ_HOCovymhsIOf-13" value="Arduino Uno R3 Configuration" style="text;html=1;strokeColor=#b85450;fillColor=#f8cecc;align=center;verticalAlign=middle;whiteSpace=wrap;rounded=0;" parent="u746MVQ_HOCovymhsIOf-12" vertex="1">
          <mxGeometry y="20" width="160" height="60" as="geometry" />
        </mxCell>
        <mxCell id="u746MVQ_HOCovymhsIOf-14" value="3.3" style="swimlane;fillColor=#f8cecc;strokeColor=#b85450;" parent="u746MVQ_HOCovymhsIOf-1" vertex="1">
          <mxGeometry x="80" y="1160" width="160" height="80" as="geometry" />
        </mxCell>
        <mxCell id="u746MVQ_HOCovymhsIOf-15" value="Hardware Components Alarm" style="text;html=1;strokeColor=#b85450;fillColor=#f8cecc;align=center;verticalAlign=middle;whiteSpace=wrap;rounded=0;" parent="u746MVQ_HOCovymhsIOf-14" vertex="1">
          <mxGeometry y="20" width="160" height="60" as="geometry" />
        </mxCell>
        <mxCell id="u746MVQ_HOCovymhsIOf-38" value="" style="endArrow=classic;html=1;entryX=0.5;entryY=0;entryDx=0;entryDy=0;exitX=0.342;exitY=1;exitDx=0;exitDy=0;exitPerimeter=0;" parent="u746MVQ_HOCovymhsIOf-1" target="u746MVQ_HOCovymhsIOf-12" edge="1">
          <mxGeometry width="50" height="50" relative="1" as="geometry">
            <mxPoint x="161.03999999999996" y="880" as="sourcePoint" />
            <mxPoint x="160" y="800" as="targetPoint" />
          </mxGeometry>
        </mxCell>
        <mxCell id="u746MVQ_HOCovymhsIOf-39" value="" style="endArrow=classic;html=1;entryX=0;entryY=0.5;entryDx=0;entryDy=0;exitX=0;exitY=0.5;exitDx=0;exitDy=0;rounded=0;" parent="u746MVQ_HOCovymhsIOf-1" source="u746MVQ_HOCovymhsIOf-15" edge="1">
          <mxGeometry width="50" height="50" relative="1" as="geometry">
            <mxPoint x="-120" y="1060" as="sourcePoint" />
            <mxPoint x="-400" y="560" as="targetPoint" />
            <Array as="points">
              <mxPoint x="-480" y="1210" />
              <mxPoint x="-480" y="560" />
            </Array>
          </mxGeometry>
        </mxCell>
        <mxCell id="u746MVQ_HOCovymhsIOf-47" value="" style="endArrow=classic;html=1;entryX=0.5;entryY=0;entryDx=0;entryDy=0;exitX=0.5;exitY=1;exitDx=0;exitDy=0;" parent="u746MVQ_HOCovymhsIOf-1" source="u746MVQ_HOCovymhsIOf-13" target="u746MVQ_HOCovymhsIOf-14" edge="1">
          <mxGeometry width="50" height="50" relative="1" as="geometry">
            <mxPoint x="130" y="1070" as="sourcePoint" />
            <mxPoint x="180" y="1020" as="targetPoint" />
          </mxGeometry>
        </mxCell>
        <mxCell id="u746MVQ_HOCovymhsIOf-48" value="Test User" style="rounded=0;whiteSpace=wrap;html=1;fillColor=#f5f5f5;strokeColor=#666666;fontColor=#333333;" parent="u746MVQ_HOCovymhsIOf-1" vertex="1">
          <mxGeometry x="-400" y="1000" width="160" height="80" as="geometry" />
        </mxCell>
        <mxCell id="u746MVQ_HOCovymhsIOf-49" value="Detection Details and Result" style="text;html=1;strokeColor=none;align=center;verticalAlign=middle;whiteSpace=wrap;rounded=0;fillColor=#ffffff;" parent="u746MVQ_HOCovymhsIOf-1" vertex="1">
          <mxGeometry x="80" y="950" width="160" height="20" as="geometry" />
        </mxCell>
        <mxCell id="u746MVQ_HOCovymhsIOf-50" value="SMS Message and Alert Call" style="text;html=1;strokeColor=none;fillColor=none;align=center;verticalAlign=middle;whiteSpace=wrap;rounded=0;" parent="u746MVQ_HOCovymhsIOf-1" vertex="1">
          <mxGeometry x="-240" y="1010" width="80" height="20" as="geometry" />
        </mxCell>
        <mxCell id="u746MVQ_HOCovymhsIOf-51" style="edgeStyle=orthogonalEdgeStyle;rounded=0;orthogonalLoop=1;jettySize=auto;html=1;exitX=0.5;exitY=1;exitDx=0;exitDy=0;" parent="u746MVQ_HOCovymhsIOf-1" source="u746MVQ_HOCovymhsIOf-50" target="u746MVQ_HOCovymhsIOf-50" edge="1">
          <mxGeometry relative="1" as="geometry" />
        </mxCell>
        <mxCell id="u746MVQ_HOCovymhsIOf-52" value="Alarm Notification" style="text;html=1;strokeColor=none;align=center;verticalAlign=middle;whiteSpace=wrap;rounded=0;fillColor=#ffffff;" parent="u746MVQ_HOCovymhsIOf-1" vertex="1">
          <mxGeometry x="-240" y="1180" width="120" height="20" as="geometry" />
        </mxCell>
        <mxCell id="u746MVQ_HOCovymhsIOf-53" value="Accident Details" style="text;html=1;strokeColor=none;fillColor=none;align=center;verticalAlign=middle;whiteSpace=wrap;rounded=0;" parent="u746MVQ_HOCovymhsIOf-1" vertex="1">
          <mxGeometry y="1020" width="80" height="20" as="geometry" />
        </mxCell>
        <mxCell id="u746MVQ_HOCovymhsIOf-54" value="" style="endArrow=classic;html=1;entryX=1;entryY=0.5;entryDx=0;entryDy=0;exitX=0;exitY=0.5;exitDx=0;exitDy=0;" parent="u746MVQ_HOCovymhsIOf-1" source="u746MVQ_HOCovymhsIOf-13" target="u746MVQ_HOCovymhsIOf-11" edge="1">
          <mxGeometry width="50" height="50" relative="1" as="geometry">
            <mxPoint x="100" y="940" as="sourcePoint" />
            <mxPoint x="150" y="890" as="targetPoint" />
          </mxGeometry>
        </mxCell>
        <mxCell id="u746MVQ_HOCovymhsIOf-55" value="" style="endArrow=classic;html=1;entryX=1;entryY=0.5;entryDx=0;entryDy=0;exitX=0;exitY=0.5;exitDx=0;exitDy=0;" parent="u746MVQ_HOCovymhsIOf-1" edge="1">
          <mxGeometry width="50" height="50" relative="1" as="geometry">
            <mxPoint x="-160" y="1050" as="sourcePoint" />
            <mxPoint x="-240" y="1050" as="targetPoint" />
          </mxGeometry>
        </mxCell>
        <mxCell id="u746MVQ_HOCovymhsIOf-56" value="Alarm Sound and Components Indicator" style="text;html=1;strokeColor=none;align=center;verticalAlign=middle;whiteSpace=wrap;rounded=0;fillColor=#ffffff;" parent="u746MVQ_HOCovymhsIOf-1" vertex="1">
          <mxGeometry x="-260" y="1180" width="160" height="20" as="geometry" />
        </mxCell>
        <mxCell id="u746MVQ_HOCovymhsIOf-60" value="Detection Signal" style="text;html=1;strokeColor=none;align=center;verticalAlign=middle;whiteSpace=wrap;rounded=0;fillColor=#ffffff;" parent="u746MVQ_HOCovymhsIOf-1" vertex="1">
          <mxGeometry x="100" y="1100" width="120" height="20" as="geometry" />
        </mxCell>
        <mxCell id="81PTYo6vg4r_TUgX-hpG-0" value="1.1" style="swimlane;fillColor=#e1d5e7;strokeColor=#9673a6;" parent="u746MVQ_HOCovymhsIOf-1" vertex="1">
          <mxGeometry x="-400" y="680" width="160" height="80" as="geometry" />
        </mxCell>
        <mxCell id="81PTYo6vg4r_TUgX-hpG-1" value="Footage Preprocessing" style="text;html=1;strokeColor=#9673a6;fillColor=#e1d5e7;align=center;verticalAlign=middle;whiteSpace=wrap;rounded=0;" parent="81PTYo6vg4r_TUgX-hpG-0" vertex="1">
          <mxGeometry y="20" width="160" height="60" as="geometry" />
        </mxCell>
        <mxCell id="81PTYo6vg4r_TUgX-hpG-2" value="2.1" style="swimlane;fillColor=#fff2cc;strokeColor=#d6b656;" parent="u746MVQ_HOCovymhsIOf-1" vertex="1">
          <mxGeometry x="80" y="677.5" width="160" height="82.5" as="geometry" />
        </mxCell>
        <mxCell id="81PTYo6vg4r_TUgX-hpG-3" value="Accident Detection Using InceptionV3" style="text;html=1;strokeColor=#d6b656;fillColor=#fff2cc;align=center;verticalAlign=middle;whiteSpace=wrap;rounded=0;" parent="81PTYo6vg4r_TUgX-hpG-2" vertex="1">
          <mxGeometry y="22.5" width="160" height="60" as="geometry" />
        </mxCell>
        <mxCell id="81PTYo6vg4r_TUgX-hpG-4" value="Raw Footage" style="text;html=1;strokeColor=none;fillColor=none;align=center;verticalAlign=middle;whiteSpace=wrap;rounded=0;" parent="u746MVQ_HOCovymhsIOf-1" vertex="1">
          <mxGeometry x="-80" y="630" width="80" height="20" as="geometry" />
        </mxCell>
        <mxCell id="81PTYo6vg4r_TUgX-hpG-5" value="User" style="rounded=0;whiteSpace=wrap;html=1;fillColor=#f5f5f5;strokeColor=#666666;fontColor=#333333;" parent="u746MVQ_HOCovymhsIOf-1" vertex="1">
          <mxGeometry x="-400" y="520" width="160" height="80" as="geometry" />
        </mxCell>
        <mxCell id="81PTYo6vg4r_TUgX-hpG-6" value="" style="rounded=0;whiteSpace=wrap;html=1;" parent="u746MVQ_HOCovymhsIOf-1" vertex="1">
          <mxGeometry x="-170" y="680" width="160" height="80" as="geometry" />
        </mxCell>
        <mxCell id="81PTYo6vg4r_TUgX-hpG-7" value="" style="endArrow=none;html=1;entryX=0.25;entryY=0;entryDx=0;entryDy=0;exitX=0.25;exitY=1;exitDx=0;exitDy=0;" parent="u746MVQ_HOCovymhsIOf-1" source="81PTYo6vg4r_TUgX-hpG-6" target="81PTYo6vg4r_TUgX-hpG-6" edge="1">
          <mxGeometry width="50" height="50" relative="1" as="geometry">
            <mxPoint x="330" y="840" as="sourcePoint" />
            <mxPoint x="380" y="790" as="targetPoint" />
          </mxGeometry>
        </mxCell>
        <mxCell id="81PTYo6vg4r_TUgX-hpG-8" value="Footage" style="text;html=1;strokeColor=#82b366;fillColor=#d5e8d4;align=center;verticalAlign=middle;whiteSpace=wrap;rounded=0;" parent="u746MVQ_HOCovymhsIOf-1" vertex="1">
          <mxGeometry x="-130" y="680" width="120" height="80" as="geometry" />
        </mxCell>
        <mxCell id="81PTYo6vg4r_TUgX-hpG-9" value="D" style="text;html=1;strokeColor=#82b366;fillColor=#d5e8d4;align=center;verticalAlign=middle;whiteSpace=wrap;rounded=0;" parent="u746MVQ_HOCovymhsIOf-1" vertex="1">
          <mxGeometry x="-170" y="680" width="40" height="80" as="geometry" />
        </mxCell>
        <mxCell id="81PTYo6vg4r_TUgX-hpG-10" value="Footage Information" style="text;html=1;strokeColor=none;fillColor=none;align=center;verticalAlign=middle;whiteSpace=wrap;rounded=0;" parent="u746MVQ_HOCovymhsIOf-1" vertex="1">
          <mxGeometry x="-240" y="670" width="80" height="20" as="geometry" />
        </mxCell>
        <mxCell id="81PTYo6vg4r_TUgX-hpG-11" value="Preprocessed Frames" style="text;html=1;strokeColor=none;fillColor=none;align=center;verticalAlign=middle;whiteSpace=wrap;rounded=0;" parent="u746MVQ_HOCovymhsIOf-1" vertex="1">
          <mxGeometry y="690" width="80" height="20" as="geometry" />
        </mxCell>
        <mxCell id="81PTYo6vg4r_TUgX-hpG-12" value="Extracted and Reshaped Frames" style="text;html=1;strokeColor=none;fillColor=none;align=center;verticalAlign=middle;whiteSpace=wrap;rounded=0;fontSize=10;" parent="u746MVQ_HOCovymhsIOf-1" vertex="1">
          <mxGeometry x="-240" y="750" width="70" height="40" as="geometry" />
        </mxCell>
        <mxCell id="81PTYo6vg4r_TUgX-hpG-13" value="" style="rounded=0;whiteSpace=wrap;html=1;" parent="u746MVQ_HOCovymhsIOf-1" vertex="1">
          <mxGeometry x="80" y="840" width="160" height="80" as="geometry" />
        </mxCell>
        <mxCell id="81PTYo6vg4r_TUgX-hpG-14" value="" style="endArrow=none;html=1;entryX=0.25;entryY=0;entryDx=0;entryDy=0;exitX=0.25;exitY=1;exitDx=0;exitDy=0;" parent="u746MVQ_HOCovymhsIOf-1" source="81PTYo6vg4r_TUgX-hpG-13" target="81PTYo6vg4r_TUgX-hpG-13" edge="1">
          <mxGeometry width="50" height="50" relative="1" as="geometry">
            <mxPoint x="580" y="1000" as="sourcePoint" />
            <mxPoint x="630" y="950" as="targetPoint" />
          </mxGeometry>
        </mxCell>
        <mxCell id="81PTYo6vg4r_TUgX-hpG-15" value="Temporary Detection Result" style="text;html=1;strokeColor=#82b366;fillColor=#d5e8d4;align=center;verticalAlign=middle;whiteSpace=wrap;rounded=0;" parent="u746MVQ_HOCovymhsIOf-1" vertex="1">
          <mxGeometry x="120" y="840" width="120" height="80" as="geometry" />
        </mxCell>
        <mxCell id="81PTYo6vg4r_TUgX-hpG-16" value="T" style="text;html=1;strokeColor=#82b366;fillColor=#d5e8d4;align=center;verticalAlign=middle;whiteSpace=wrap;rounded=0;" parent="u746MVQ_HOCovymhsIOf-1" vertex="1">
          <mxGeometry x="80" y="840" width="40" height="80" as="geometry" />
        </mxCell>
        <mxCell id="81PTYo6vg4r_TUgX-hpG-17" value="Detection Confidence Score" style="text;html=1;strokeColor=none;fillColor=none;align=center;verticalAlign=middle;whiteSpace=wrap;rounded=0;" parent="u746MVQ_HOCovymhsIOf-1" vertex="1">
          <mxGeometry x="160" y="790" width="80" height="20" as="geometry" />
        </mxCell>
        <mxCell id="81PTYo6vg4r_TUgX-hpG-18" value="0" style="swimlane;fillColor=#dae8fc;strokeColor=#6c8ebf;" parent="u746MVQ_HOCovymhsIOf-1" vertex="1">
          <mxGeometry x="-160" y="520" width="160" height="80" as="geometry" />
        </mxCell>
        <mxCell id="81PTYo6vg4r_TUgX-hpG-19" value="Automated Road Accident Monitoring and Alarm System&amp;nbsp;" style="text;html=1;strokeColor=#6c8ebf;fillColor=#dae8fc;align=center;verticalAlign=middle;whiteSpace=wrap;rounded=0;" parent="81PTYo6vg4r_TUgX-hpG-18" vertex="1">
          <mxGeometry y="20" width="160" height="60" as="geometry" />
        </mxCell>
        <mxCell id="81PTYo6vg4r_TUgX-hpG-20" value="" style="endArrow=classic;html=1;exitX=0.5;exitY=1;exitDx=0;exitDy=0;" parent="u746MVQ_HOCovymhsIOf-1" source="81PTYo6vg4r_TUgX-hpG-19" edge="1">
          <mxGeometry width="50" height="50" relative="1" as="geometry">
            <mxPoint x="40" y="540" as="sourcePoint" />
            <mxPoint x="-80" y="680" as="targetPoint" />
          </mxGeometry>
        </mxCell>
        <mxCell id="81PTYo6vg4r_TUgX-hpG-21" value="" style="endArrow=classic;html=1;exitX=1;exitY=0.25;exitDx=0;exitDy=0;entryX=0;entryY=0;entryDx=0;entryDy=0;" parent="u746MVQ_HOCovymhsIOf-1" source="81PTYo6vg4r_TUgX-hpG-5" target="81PTYo6vg4r_TUgX-hpG-19" edge="1">
          <mxGeometry width="50" height="50" relative="1" as="geometry">
            <mxPoint x="-80" y="510" as="sourcePoint" />
            <mxPoint x="-30" y="460" as="targetPoint" />
          </mxGeometry>
        </mxCell>
        <mxCell id="81PTYo6vg4r_TUgX-hpG-22" value="" style="endArrow=classic;html=1;entryX=1;entryY=0.75;entryDx=0;entryDy=0;exitX=0;exitY=0.75;exitDx=0;exitDy=0;" parent="u746MVQ_HOCovymhsIOf-1" source="81PTYo6vg4r_TUgX-hpG-18" target="81PTYo6vg4r_TUgX-hpG-5" edge="1">
          <mxGeometry width="50" height="50" relative="1" as="geometry">
            <mxPoint x="-190" y="580" as="sourcePoint" />
            <mxPoint x="-30" y="460" as="targetPoint" />
          </mxGeometry>
        </mxCell>
        <mxCell id="81PTYo6vg4r_TUgX-hpG-23" value="Footage" style="text;html=1;strokeColor=none;align=center;verticalAlign=middle;whiteSpace=wrap;rounded=0;fillColor=#ffffff;" parent="u746MVQ_HOCovymhsIOf-1" vertex="1">
          <mxGeometry x="-240" y="510" width="80" height="20" as="geometry" />
        </mxCell>
        <mxCell id="81PTYo6vg4r_TUgX-hpG-24" value="" style="endArrow=classic;html=1;exitX=1;exitY=0.5;exitDx=0;exitDy=0;entryX=0;entryY=0.5;entryDx=0;entryDy=0;" parent="u746MVQ_HOCovymhsIOf-1" source="81PTYo6vg4r_TUgX-hpG-8" target="81PTYo6vg4r_TUgX-hpG-2" edge="1">
          <mxGeometry width="50" height="50" relative="1" as="geometry">
            <mxPoint x="140" y="820" as="sourcePoint" />
            <mxPoint x="320" y="780" as="targetPoint" />
          </mxGeometry>
        </mxCell>
        <mxCell id="81PTYo6vg4r_TUgX-hpG-25" value="" style="endArrow=classic;html=1;entryX=0.5;entryY=0;entryDx=0;entryDy=0;exitX=0.5;exitY=1;exitDx=0;exitDy=0;" parent="u746MVQ_HOCovymhsIOf-1" source="81PTYo6vg4r_TUgX-hpG-3" target="81PTYo6vg4r_TUgX-hpG-13" edge="1">
          <mxGeometry width="50" height="50" relative="1" as="geometry">
            <mxPoint x="110" y="800" as="sourcePoint" />
            <mxPoint x="170" y="790" as="targetPoint" />
          </mxGeometry>
        </mxCell>
        <mxCell id="81PTYo6vg4r_TUgX-hpG-26" value="" style="endArrow=classic;html=1;entryX=1;entryY=0.25;entryDx=0;entryDy=0;exitX=0;exitY=0.25;exitDx=0;exitDy=0;" parent="u746MVQ_HOCovymhsIOf-1" source="81PTYo6vg4r_TUgX-hpG-9" target="81PTYo6vg4r_TUgX-hpG-0" edge="1">
          <mxGeometry width="50" height="50" relative="1" as="geometry">
            <mxPoint x="-230" y="800" as="sourcePoint" />
            <mxPoint x="-180" y="750" as="targetPoint" />
          </mxGeometry>
        </mxCell>
        <mxCell id="81PTYo6vg4r_TUgX-hpG-27" value="" style="endArrow=classic;html=1;entryX=0;entryY=0.75;entryDx=0;entryDy=0;exitX=1;exitY=0.75;exitDx=0;exitDy=0;" parent="u746MVQ_HOCovymhsIOf-1" source="81PTYo6vg4r_TUgX-hpG-0" target="81PTYo6vg4r_TUgX-hpG-9" edge="1">
          <mxGeometry width="50" height="50" relative="1" as="geometry">
            <mxPoint x="-230" y="800" as="sourcePoint" />
            <mxPoint x="-180" y="750" as="targetPoint" />
          </mxGeometry>
        </mxCell>
      </root>
    </mxGraphModel>
  </diagram>
  <diagram name="level 1 - Des Opt 3 Chapt 3" id="YC4mufJ0u4ChF1L3Rk3C">
    <mxGraphModel dx="2995" dy="768" grid="1" gridSize="10" guides="1" tooltips="1" connect="1" arrows="1" fold="1" page="1" pageScale="1" pageWidth="1700" pageHeight="1100" math="0" shadow="0">
      <root>
        <mxCell id="U_Z-36OVPCWVRN974nAL-0" />
        <mxCell id="U_Z-36OVPCWVRN974nAL-1" parent="U_Z-36OVPCWVRN974nAL-0" />
        <mxCell id="U_Z-36OVPCWVRN974nAL-10" value="3.2" style="swimlane;fillColor=#f8cecc;strokeColor=#b85450;" parent="U_Z-36OVPCWVRN974nAL-1" vertex="1">
          <mxGeometry x="-160" y="1000" width="160" height="80" as="geometry" />
        </mxCell>
        <mxCell id="U_Z-36OVPCWVRN974nAL-12" value="3.1" style="swimlane;fillColor=#f8cecc;strokeColor=#b85450;" parent="U_Z-36OVPCWVRN974nAL-1" vertex="1">
          <mxGeometry x="80" y="1000" width="160" height="80" as="geometry" />
        </mxCell>
        <mxCell id="U_Z-36OVPCWVRN974nAL-13" value="Arduino Uno R3 Configuration" style="text;html=1;strokeColor=#b85450;fillColor=#f8cecc;align=center;verticalAlign=middle;whiteSpace=wrap;rounded=0;" parent="U_Z-36OVPCWVRN974nAL-12" vertex="1">
          <mxGeometry y="20" width="160" height="60" as="geometry" />
        </mxCell>
        <mxCell id="U_Z-36OVPCWVRN974nAL-14" value="3.3" style="swimlane;fillColor=#f8cecc;strokeColor=#b85450;" parent="U_Z-36OVPCWVRN974nAL-1" vertex="1">
          <mxGeometry x="80" y="1160" width="160" height="80" as="geometry" />
        </mxCell>
        <mxCell id="U_Z-36OVPCWVRN974nAL-15" value="Hardware Components Alarm" style="text;html=1;strokeColor=#b85450;fillColor=#f8cecc;align=center;verticalAlign=middle;whiteSpace=wrap;rounded=0;" parent="U_Z-36OVPCWVRN974nAL-14" vertex="1">
          <mxGeometry y="20" width="160" height="60" as="geometry" />
        </mxCell>
        <mxCell id="U_Z-36OVPCWVRN974nAL-38" value="" style="endArrow=classic;html=1;entryX=0.5;entryY=0;entryDx=0;entryDy=0;exitX=0.342;exitY=1;exitDx=0;exitDy=0;exitPerimeter=0;" parent="U_Z-36OVPCWVRN974nAL-1" target="U_Z-36OVPCWVRN974nAL-12" edge="1">
          <mxGeometry width="50" height="50" relative="1" as="geometry">
            <mxPoint x="161.03999999999996" y="920" as="sourcePoint" />
            <mxPoint x="160" y="840" as="targetPoint" />
          </mxGeometry>
        </mxCell>
        <mxCell id="U_Z-36OVPCWVRN974nAL-39" value="" style="endArrow=classic;html=1;entryX=0;entryY=0.5;entryDx=0;entryDy=0;exitX=0;exitY=0.5;exitDx=0;exitDy=0;rounded=0;" parent="U_Z-36OVPCWVRN974nAL-1" source="U_Z-36OVPCWVRN974nAL-15" edge="1">
          <mxGeometry width="50" height="50" relative="1" as="geometry">
            <mxPoint x="-120" y="1060" as="sourcePoint" />
            <mxPoint x="-400" y="560" as="targetPoint" />
            <Array as="points">
              <mxPoint x="-480" y="1210" />
              <mxPoint x="-480" y="560" />
            </Array>
          </mxGeometry>
        </mxCell>
        <mxCell id="U_Z-36OVPCWVRN974nAL-47" value="" style="endArrow=classic;html=1;entryX=0.5;entryY=0;entryDx=0;entryDy=0;exitX=0.5;exitY=1;exitDx=0;exitDy=0;" parent="U_Z-36OVPCWVRN974nAL-1" source="U_Z-36OVPCWVRN974nAL-13" target="U_Z-36OVPCWVRN974nAL-14" edge="1">
          <mxGeometry width="50" height="50" relative="1" as="geometry">
            <mxPoint x="130" y="1070" as="sourcePoint" />
            <mxPoint x="180" y="1020" as="targetPoint" />
          </mxGeometry>
        </mxCell>
        <mxCell id="U_Z-36OVPCWVRN974nAL-48" value="Test User" style="rounded=0;whiteSpace=wrap;html=1;fillColor=#f5f5f5;strokeColor=#666666;fontColor=#333333;" parent="U_Z-36OVPCWVRN974nAL-1" vertex="1">
          <mxGeometry x="-400" y="1000" width="160" height="80" as="geometry" />
        </mxCell>
        <mxCell id="U_Z-36OVPCWVRN974nAL-49" value="Detection Details and Result" style="text;html=1;strokeColor=none;align=center;verticalAlign=middle;whiteSpace=wrap;rounded=0;fillColor=#ffffff;" parent="U_Z-36OVPCWVRN974nAL-1" vertex="1">
          <mxGeometry x="80" y="950" width="160" height="20" as="geometry" />
        </mxCell>
        <mxCell id="U_Z-36OVPCWVRN974nAL-51" style="edgeStyle=orthogonalEdgeStyle;rounded=0;orthogonalLoop=1;jettySize=auto;html=1;exitX=0.5;exitY=1;exitDx=0;exitDy=0;" parent="U_Z-36OVPCWVRN974nAL-1" edge="1">
          <mxGeometry relative="1" as="geometry">
            <mxPoint x="-200" y="1030" as="sourcePoint" />
            <mxPoint x="-200" y="1030" as="targetPoint" />
          </mxGeometry>
        </mxCell>
        <mxCell id="U_Z-36OVPCWVRN974nAL-52" value="Alarm Notification" style="text;html=1;strokeColor=none;align=center;verticalAlign=middle;whiteSpace=wrap;rounded=0;fillColor=#ffffff;" parent="U_Z-36OVPCWVRN974nAL-1" vertex="1">
          <mxGeometry x="-240" y="1180" width="120" height="20" as="geometry" />
        </mxCell>
        <mxCell id="U_Z-36OVPCWVRN974nAL-53" value="Accident Details" style="text;html=1;strokeColor=none;fillColor=none;align=center;verticalAlign=middle;whiteSpace=wrap;rounded=0;" parent="U_Z-36OVPCWVRN974nAL-1" vertex="1">
          <mxGeometry y="1020" width="80" height="20" as="geometry" />
        </mxCell>
        <mxCell id="U_Z-36OVPCWVRN974nAL-54" value="" style="endArrow=classic;html=1;entryX=1;entryY=0.5;entryDx=0;entryDy=0;exitX=0;exitY=0.5;exitDx=0;exitDy=0;" parent="U_Z-36OVPCWVRN974nAL-1" source="U_Z-36OVPCWVRN974nAL-13" edge="1">
          <mxGeometry width="50" height="50" relative="1" as="geometry">
            <mxPoint x="100" y="940" as="sourcePoint" />
            <mxPoint y="1050" as="targetPoint" />
          </mxGeometry>
        </mxCell>
        <mxCell id="U_Z-36OVPCWVRN974nAL-55" value="" style="endArrow=classic;html=1;entryX=1;entryY=0.5;entryDx=0;entryDy=0;exitX=0;exitY=0.5;exitDx=0;exitDy=0;" parent="U_Z-36OVPCWVRN974nAL-1" edge="1">
          <mxGeometry width="50" height="50" relative="1" as="geometry">
            <mxPoint x="-160" y="1050" as="sourcePoint" />
            <mxPoint x="-240" y="1050" as="targetPoint" />
          </mxGeometry>
        </mxCell>
        <mxCell id="U_Z-36OVPCWVRN974nAL-56" value="Alarm Sound and Components Indicator" style="text;html=1;strokeColor=none;align=center;verticalAlign=middle;whiteSpace=wrap;rounded=0;fillColor=#ffffff;" parent="U_Z-36OVPCWVRN974nAL-1" vertex="1">
          <mxGeometry x="-260" y="1180" width="160" height="20" as="geometry" />
        </mxCell>
        <mxCell id="U_Z-36OVPCWVRN974nAL-60" value="Detection Signal" style="text;html=1;strokeColor=none;align=center;verticalAlign=middle;whiteSpace=wrap;rounded=0;fillColor=#ffffff;" parent="U_Z-36OVPCWVRN974nAL-1" vertex="1">
          <mxGeometry x="100" y="1100" width="120" height="20" as="geometry" />
        </mxCell>
        <mxCell id="zyG0OIVbvRg3LcjVWOoF-2" value="1.1" style="swimlane;fillColor=#e1d5e7;strokeColor=#9673a6;" parent="U_Z-36OVPCWVRN974nAL-1" vertex="1">
          <mxGeometry x="-400" y="680" width="160" height="80" as="geometry" />
        </mxCell>
        <mxCell id="zyG0OIVbvRg3LcjVWOoF-3" value="Footage Preprocessing" style="text;html=1;strokeColor=#9673a6;fillColor=#e1d5e7;align=center;verticalAlign=middle;whiteSpace=wrap;rounded=0;" parent="zyG0OIVbvRg3LcjVWOoF-2" vertex="1">
          <mxGeometry y="20" width="160" height="60" as="geometry" />
        </mxCell>
        <mxCell id="zyG0OIVbvRg3LcjVWOoF-4" value="2.1" style="swimlane;fillColor=#fff2cc;strokeColor=#d6b656;" parent="U_Z-36OVPCWVRN974nAL-1" vertex="1">
          <mxGeometry x="80" y="677.5" width="160" height="82.5" as="geometry" />
        </mxCell>
        <mxCell id="zyG0OIVbvRg3LcjVWOoF-5" value="Accident Detection Using ResNet152V2" style="text;html=1;strokeColor=#d6b656;fillColor=#fff2cc;align=center;verticalAlign=middle;whiteSpace=wrap;rounded=0;" parent="zyG0OIVbvRg3LcjVWOoF-4" vertex="1">
          <mxGeometry y="22.5" width="160" height="60" as="geometry" />
        </mxCell>
        <mxCell id="zyG0OIVbvRg3LcjVWOoF-6" value="Raw Footage" style="text;html=1;strokeColor=none;fillColor=none;align=center;verticalAlign=middle;whiteSpace=wrap;rounded=0;" parent="U_Z-36OVPCWVRN974nAL-1" vertex="1">
          <mxGeometry x="-80" y="630" width="80" height="20" as="geometry" />
        </mxCell>
        <mxCell id="zyG0OIVbvRg3LcjVWOoF-8" value="User" style="rounded=0;whiteSpace=wrap;html=1;fillColor=#f5f5f5;strokeColor=#666666;fontColor=#333333;" parent="U_Z-36OVPCWVRN974nAL-1" vertex="1">
          <mxGeometry x="-400" y="520" width="160" height="80" as="geometry" />
        </mxCell>
        <mxCell id="zyG0OIVbvRg3LcjVWOoF-11" value="" style="rounded=0;whiteSpace=wrap;html=1;" parent="U_Z-36OVPCWVRN974nAL-1" vertex="1">
          <mxGeometry x="-170" y="680" width="160" height="80" as="geometry" />
        </mxCell>
        <mxCell id="zyG0OIVbvRg3LcjVWOoF-12" value="" style="endArrow=none;html=1;entryX=0.25;entryY=0;entryDx=0;entryDy=0;exitX=0.25;exitY=1;exitDx=0;exitDy=0;" parent="U_Z-36OVPCWVRN974nAL-1" source="zyG0OIVbvRg3LcjVWOoF-11" target="zyG0OIVbvRg3LcjVWOoF-11" edge="1">
          <mxGeometry width="50" height="50" relative="1" as="geometry">
            <mxPoint x="330" y="840" as="sourcePoint" />
            <mxPoint x="380" y="790" as="targetPoint" />
          </mxGeometry>
        </mxCell>
        <mxCell id="zyG0OIVbvRg3LcjVWOoF-13" value="Footage" style="text;html=1;strokeColor=#82b366;fillColor=#d5e8d4;align=center;verticalAlign=middle;whiteSpace=wrap;rounded=0;" parent="U_Z-36OVPCWVRN974nAL-1" vertex="1">
          <mxGeometry x="-130" y="680" width="120" height="80" as="geometry" />
        </mxCell>
        <mxCell id="zyG0OIVbvRg3LcjVWOoF-14" value="D" style="text;html=1;strokeColor=#82b366;fillColor=#d5e8d4;align=center;verticalAlign=middle;whiteSpace=wrap;rounded=0;" parent="U_Z-36OVPCWVRN974nAL-1" vertex="1">
          <mxGeometry x="-170" y="680" width="40" height="80" as="geometry" />
        </mxCell>
        <mxCell id="zyG0OIVbvRg3LcjVWOoF-17" value="Footage Information" style="text;html=1;strokeColor=none;fillColor=none;align=center;verticalAlign=middle;whiteSpace=wrap;rounded=0;" parent="U_Z-36OVPCWVRN974nAL-1" vertex="1">
          <mxGeometry x="-240" y="670" width="80" height="20" as="geometry" />
        </mxCell>
        <mxCell id="zyG0OIVbvRg3LcjVWOoF-18" value="Preprocessed Frames" style="text;html=1;strokeColor=none;fillColor=none;align=center;verticalAlign=middle;whiteSpace=wrap;rounded=0;" parent="U_Z-36OVPCWVRN974nAL-1" vertex="1">
          <mxGeometry y="690" width="80" height="20" as="geometry" />
        </mxCell>
        <mxCell id="zyG0OIVbvRg3LcjVWOoF-19" value="Extracted and Reshaped Frames" style="text;html=1;strokeColor=none;fillColor=none;align=center;verticalAlign=middle;whiteSpace=wrap;rounded=0;fontSize=10;" parent="U_Z-36OVPCWVRN974nAL-1" vertex="1">
          <mxGeometry x="-240" y="750" width="70" height="40" as="geometry" />
        </mxCell>
        <mxCell id="zyG0OIVbvRg3LcjVWOoF-20" value="" style="rounded=0;whiteSpace=wrap;html=1;" parent="U_Z-36OVPCWVRN974nAL-1" vertex="1">
          <mxGeometry x="80" y="840" width="160" height="80" as="geometry" />
        </mxCell>
        <mxCell id="zyG0OIVbvRg3LcjVWOoF-21" value="" style="endArrow=none;html=1;entryX=0.25;entryY=0;entryDx=0;entryDy=0;exitX=0.25;exitY=1;exitDx=0;exitDy=0;" parent="U_Z-36OVPCWVRN974nAL-1" source="zyG0OIVbvRg3LcjVWOoF-20" target="zyG0OIVbvRg3LcjVWOoF-20" edge="1">
          <mxGeometry width="50" height="50" relative="1" as="geometry">
            <mxPoint x="580" y="1000" as="sourcePoint" />
            <mxPoint x="630" y="950" as="targetPoint" />
          </mxGeometry>
        </mxCell>
        <mxCell id="zyG0OIVbvRg3LcjVWOoF-22" value="Temporary Detection Result" style="text;html=1;strokeColor=#82b366;fillColor=#d5e8d4;align=center;verticalAlign=middle;whiteSpace=wrap;rounded=0;" parent="U_Z-36OVPCWVRN974nAL-1" vertex="1">
          <mxGeometry x="120" y="840" width="120" height="80" as="geometry" />
        </mxCell>
        <mxCell id="zyG0OIVbvRg3LcjVWOoF-23" value="T" style="text;html=1;strokeColor=#82b366;fillColor=#d5e8d4;align=center;verticalAlign=middle;whiteSpace=wrap;rounded=0;" parent="U_Z-36OVPCWVRN974nAL-1" vertex="1">
          <mxGeometry x="80" y="840" width="40" height="80" as="geometry" />
        </mxCell>
        <mxCell id="zyG0OIVbvRg3LcjVWOoF-24" value="Detection Confidence Score" style="text;html=1;strokeColor=none;fillColor=none;align=center;verticalAlign=middle;whiteSpace=wrap;rounded=0;" parent="U_Z-36OVPCWVRN974nAL-1" vertex="1">
          <mxGeometry x="160" y="790" width="80" height="20" as="geometry" />
        </mxCell>
        <mxCell id="zyG0OIVbvRg3LcjVWOoF-27" value="0" style="swimlane;fillColor=#dae8fc;strokeColor=#6c8ebf;" parent="U_Z-36OVPCWVRN974nAL-1" vertex="1">
          <mxGeometry x="-160" y="520" width="160" height="80" as="geometry" />
        </mxCell>
        <mxCell id="zyG0OIVbvRg3LcjVWOoF-28" value="Automated Road Accident Monitoring and Alarm System&amp;nbsp;" style="text;html=1;strokeColor=#6c8ebf;fillColor=#dae8fc;align=center;verticalAlign=middle;whiteSpace=wrap;rounded=0;" parent="zyG0OIVbvRg3LcjVWOoF-27" vertex="1">
          <mxGeometry y="20" width="160" height="60" as="geometry" />
        </mxCell>
        <mxCell id="zyG0OIVbvRg3LcjVWOoF-30" value="" style="endArrow=classic;html=1;exitX=0.5;exitY=1;exitDx=0;exitDy=0;" parent="U_Z-36OVPCWVRN974nAL-1" source="zyG0OIVbvRg3LcjVWOoF-28" edge="1">
          <mxGeometry width="50" height="50" relative="1" as="geometry">
            <mxPoint x="40" y="540" as="sourcePoint" />
            <mxPoint x="-80" y="680" as="targetPoint" />
          </mxGeometry>
        </mxCell>
        <mxCell id="zyG0OIVbvRg3LcjVWOoF-31" value="" style="endArrow=classic;html=1;exitX=1;exitY=0.25;exitDx=0;exitDy=0;entryX=0;entryY=0;entryDx=0;entryDy=0;" parent="U_Z-36OVPCWVRN974nAL-1" source="zyG0OIVbvRg3LcjVWOoF-8" target="zyG0OIVbvRg3LcjVWOoF-28" edge="1">
          <mxGeometry width="50" height="50" relative="1" as="geometry">
            <mxPoint x="-80" y="510" as="sourcePoint" />
            <mxPoint x="-30" y="460" as="targetPoint" />
          </mxGeometry>
        </mxCell>
        <mxCell id="zyG0OIVbvRg3LcjVWOoF-32" value="" style="endArrow=classic;html=1;entryX=1;entryY=0.75;entryDx=0;entryDy=0;exitX=0;exitY=0.75;exitDx=0;exitDy=0;" parent="U_Z-36OVPCWVRN974nAL-1" source="zyG0OIVbvRg3LcjVWOoF-27" target="zyG0OIVbvRg3LcjVWOoF-8" edge="1">
          <mxGeometry width="50" height="50" relative="1" as="geometry">
            <mxPoint x="-190" y="580" as="sourcePoint" />
            <mxPoint x="-30" y="460" as="targetPoint" />
          </mxGeometry>
        </mxCell>
        <mxCell id="zyG0OIVbvRg3LcjVWOoF-33" value="Footage" style="text;html=1;strokeColor=none;align=center;verticalAlign=middle;whiteSpace=wrap;rounded=0;fillColor=#ffffff;" parent="U_Z-36OVPCWVRN974nAL-1" vertex="1">
          <mxGeometry x="-240" y="510" width="80" height="20" as="geometry" />
        </mxCell>
        <mxCell id="zyG0OIVbvRg3LcjVWOoF-35" value="" style="endArrow=classic;html=1;exitX=1;exitY=0.5;exitDx=0;exitDy=0;entryX=0;entryY=0.5;entryDx=0;entryDy=0;" parent="U_Z-36OVPCWVRN974nAL-1" source="zyG0OIVbvRg3LcjVWOoF-13" target="zyG0OIVbvRg3LcjVWOoF-4" edge="1">
          <mxGeometry width="50" height="50" relative="1" as="geometry">
            <mxPoint x="140" y="820" as="sourcePoint" />
            <mxPoint x="320" y="780" as="targetPoint" />
          </mxGeometry>
        </mxCell>
        <mxCell id="Ej5t-H_JHkk04OntaBEq-1" value="" style="endArrow=classic;html=1;entryX=0.5;entryY=0;entryDx=0;entryDy=0;exitX=0.5;exitY=1;exitDx=0;exitDy=0;" parent="U_Z-36OVPCWVRN974nAL-1" source="zyG0OIVbvRg3LcjVWOoF-5" target="zyG0OIVbvRg3LcjVWOoF-20" edge="1">
          <mxGeometry width="50" height="50" relative="1" as="geometry">
            <mxPoint x="110" y="800" as="sourcePoint" />
            <mxPoint x="170" y="790" as="targetPoint" />
          </mxGeometry>
        </mxCell>
        <mxCell id="Ej5t-H_JHkk04OntaBEq-3" value="" style="endArrow=classic;html=1;entryX=1;entryY=0.25;entryDx=0;entryDy=0;exitX=0;exitY=0.25;exitDx=0;exitDy=0;" parent="U_Z-36OVPCWVRN974nAL-1" source="zyG0OIVbvRg3LcjVWOoF-14" target="zyG0OIVbvRg3LcjVWOoF-2" edge="1">
          <mxGeometry width="50" height="50" relative="1" as="geometry">
            <mxPoint x="-230" y="800" as="sourcePoint" />
            <mxPoint x="-180" y="750" as="targetPoint" />
          </mxGeometry>
        </mxCell>
        <mxCell id="Ej5t-H_JHkk04OntaBEq-4" value="" style="endArrow=classic;html=1;entryX=0;entryY=0.75;entryDx=0;entryDy=0;exitX=1;exitY=0.75;exitDx=0;exitDy=0;" parent="U_Z-36OVPCWVRN974nAL-1" source="zyG0OIVbvRg3LcjVWOoF-2" target="zyG0OIVbvRg3LcjVWOoF-14" edge="1">
          <mxGeometry width="50" height="50" relative="1" as="geometry">
            <mxPoint x="-230" y="800" as="sourcePoint" />
            <mxPoint x="-180" y="750" as="targetPoint" />
          </mxGeometry>
        </mxCell>
        <mxCell id="azbzsRVQssZ6ANAsb7dE-1" value="SMS Message and Alert Call" style="text;html=1;strokeColor=none;fillColor=none;align=center;verticalAlign=middle;whiteSpace=wrap;rounded=0;" vertex="1" parent="U_Z-36OVPCWVRN974nAL-1">
          <mxGeometry x="-240" y="1010" width="80" height="20" as="geometry" />
        </mxCell>
        <mxCell id="ESpvHNNq9TwWUVSwonVO-0" value="Send SMS and Alert Call using SIM800L" style="text;html=1;strokeColor=#b85450;fillColor=#f8cecc;align=center;verticalAlign=middle;whiteSpace=wrap;rounded=0;" vertex="1" parent="U_Z-36OVPCWVRN974nAL-1">
          <mxGeometry x="-160" y="1020" width="160" height="60" as="geometry" />
        </mxCell>
      </root>
    </mxGraphModel>
  </diagram>
  <diagram name="level 1 - Des Opt 2 - Chapt 5" id="nzhbEkMG15ViLsCJbD7B">
    <mxGraphModel dx="2736" dy="614" grid="1" gridSize="10" guides="1" tooltips="1" connect="1" arrows="1" fold="1" page="1" pageScale="1" pageWidth="1700" pageHeight="1100" math="0" shadow="0">
      <root>
        <mxCell id="Op_HvRspV4cMSqSuF1tA-0" />
        <mxCell id="Op_HvRspV4cMSqSuF1tA-1" parent="Op_HvRspV4cMSqSuF1tA-0" />
        <mxCell id="Op_HvRspV4cMSqSuF1tA-6" value="1.1" style="swimlane;fillColor=#e1d5e7;strokeColor=#9673a6;" parent="Op_HvRspV4cMSqSuF1tA-1" vertex="1">
          <mxGeometry x="-160" y="680" width="160" height="80" as="geometry" />
        </mxCell>
        <mxCell id="Op_HvRspV4cMSqSuF1tA-7" value="Graphical User Interface Program Loop" style="text;html=1;strokeColor=#9673a6;fillColor=#e1d5e7;align=center;verticalAlign=middle;whiteSpace=wrap;rounded=0;" parent="Op_HvRspV4cMSqSuF1tA-6" vertex="1">
          <mxGeometry y="20" width="160" height="60" as="geometry" />
        </mxCell>
        <mxCell id="Op_HvRspV4cMSqSuF1tA-8" value="1.2" style="swimlane;fillColor=#e1d5e7;strokeColor=#9673a6;" parent="Op_HvRspV4cMSqSuF1tA-1" vertex="1">
          <mxGeometry x="80" y="680" width="160" height="80" as="geometry" />
        </mxCell>
        <mxCell id="Op_HvRspV4cMSqSuF1tA-9" value="Footage Screen Assignment" style="text;html=1;strokeColor=#9673a6;fillColor=#e1d5e7;align=center;verticalAlign=middle;whiteSpace=wrap;rounded=0;" parent="Op_HvRspV4cMSqSuF1tA-8" vertex="1">
          <mxGeometry y="20" width="160" height="60" as="geometry" />
        </mxCell>
        <mxCell id="Op_HvRspV4cMSqSuF1tA-10" value="1.3" style="swimlane;fillColor=#e1d5e7;strokeColor=#9673a6;" parent="Op_HvRspV4cMSqSuF1tA-1" vertex="1">
          <mxGeometry x="320" y="520" width="160" height="80" as="geometry" />
        </mxCell>
        <mxCell id="Op_HvRspV4cMSqSuF1tA-11" value="Preprocessing of Multiple Footage" style="text;html=1;strokeColor=#9673a6;fillColor=#e1d5e7;align=center;verticalAlign=middle;whiteSpace=wrap;rounded=0;" parent="Op_HvRspV4cMSqSuF1tA-10" vertex="1">
          <mxGeometry y="20" width="160" height="60" as="geometry" />
        </mxCell>
        <mxCell id="Op_HvRspV4cMSqSuF1tA-12" value="2.1" style="swimlane;fillColor=#fff2cc;strokeColor=#d6b656;" parent="Op_HvRspV4cMSqSuF1tA-1" vertex="1">
          <mxGeometry x="320" y="800" width="160" height="80" as="geometry" />
        </mxCell>
        <mxCell id="Op_HvRspV4cMSqSuF1tA-13" value="Multiple Accident Detection Using InceptionV3" style="text;html=1;strokeColor=#d6b656;fillColor=#fff2cc;align=center;verticalAlign=middle;whiteSpace=wrap;rounded=0;" parent="Op_HvRspV4cMSqSuF1tA-12" vertex="1">
          <mxGeometry y="20" width="160" height="60" as="geometry" />
        </mxCell>
        <mxCell id="Op_HvRspV4cMSqSuF1tA-14" value="3.2" style="swimlane;fillColor=#f8cecc;strokeColor=#b85450;" parent="Op_HvRspV4cMSqSuF1tA-1" vertex="1">
          <mxGeometry x="-160" y="960" width="160" height="80" as="geometry" />
        </mxCell>
        <mxCell id="Op_HvRspV4cMSqSuF1tA-15" value="Send SMS and Alert Call using SIM800L" style="text;html=1;strokeColor=#b85450;fillColor=#f8cecc;align=center;verticalAlign=middle;whiteSpace=wrap;rounded=0;" parent="Op_HvRspV4cMSqSuF1tA-14" vertex="1">
          <mxGeometry y="20" width="160" height="60" as="geometry" />
        </mxCell>
        <mxCell id="Op_HvRspV4cMSqSuF1tA-16" value="3.1" style="swimlane;fillColor=#f8cecc;strokeColor=#b85450;" parent="Op_HvRspV4cMSqSuF1tA-1" vertex="1">
          <mxGeometry x="80" y="960" width="160" height="80" as="geometry" />
        </mxCell>
        <mxCell id="Op_HvRspV4cMSqSuF1tA-17" value="Arduino Uno R3 Configuration" style="text;html=1;strokeColor=#b85450;fillColor=#f8cecc;align=center;verticalAlign=middle;whiteSpace=wrap;rounded=0;" parent="Op_HvRspV4cMSqSuF1tA-16" vertex="1">
          <mxGeometry y="20" width="160" height="60" as="geometry" />
        </mxCell>
        <mxCell id="Op_HvRspV4cMSqSuF1tA-18" value="3.3" style="swimlane;fillColor=#f8cecc;strokeColor=#b85450;" parent="Op_HvRspV4cMSqSuF1tA-1" vertex="1">
          <mxGeometry x="80" y="1120" width="160" height="80" as="geometry" />
        </mxCell>
        <mxCell id="Op_HvRspV4cMSqSuF1tA-19" value="Hardware Components Alarm" style="text;html=1;strokeColor=#b85450;fillColor=#f8cecc;align=center;verticalAlign=middle;whiteSpace=wrap;rounded=0;" parent="Op_HvRspV4cMSqSuF1tA-18" vertex="1">
          <mxGeometry y="20" width="160" height="60" as="geometry" />
        </mxCell>
        <mxCell id="Op_HvRspV4cMSqSuF1tA-22" value="" style="endArrow=classic;html=1;entryX=0;entryY=0.5;entryDx=0;entryDy=0;exitX=1;exitY=0.5;exitDx=0;exitDy=0;" parent="Op_HvRspV4cMSqSuF1tA-1" source="Op_HvRspV4cMSqSuF1tA-7" target="Op_HvRspV4cMSqSuF1tA-9" edge="1">
          <mxGeometry width="50" height="50" relative="1" as="geometry">
            <mxPoint y="730" as="sourcePoint" />
            <mxPoint x="80" y="730" as="targetPoint" />
          </mxGeometry>
        </mxCell>
        <mxCell id="Op_HvRspV4cMSqSuF1tA-23" value="Monitoring Team" style="rounded=0;whiteSpace=wrap;html=1;fillColor=#f5f5f5;strokeColor=#666666;fontColor=#333333;" parent="Op_HvRspV4cMSqSuF1tA-1" vertex="1">
          <mxGeometry x="-400" y="520" width="160" height="80" as="geometry" />
        </mxCell>
        <mxCell id="Op_HvRspV4cMSqSuF1tA-24" value="Footages" style="text;html=1;strokeColor=none;align=center;verticalAlign=middle;whiteSpace=wrap;rounded=0;fillColor=#ffffff;" parent="Op_HvRspV4cMSqSuF1tA-1" vertex="1">
          <mxGeometry x="-30" y="630" width="90" height="20" as="geometry" />
        </mxCell>
        <mxCell id="Op_HvRspV4cMSqSuF1tA-26" value="" style="rounded=0;whiteSpace=wrap;html=1;" parent="Op_HvRspV4cMSqSuF1tA-1" vertex="1">
          <mxGeometry x="320" y="680" width="160" height="80" as="geometry" />
        </mxCell>
        <mxCell id="Op_HvRspV4cMSqSuF1tA-27" value="" style="endArrow=none;html=1;entryX=0.25;entryY=0;entryDx=0;entryDy=0;exitX=0.25;exitY=1;exitDx=0;exitDy=0;" parent="Op_HvRspV4cMSqSuF1tA-1" source="Op_HvRspV4cMSqSuF1tA-26" target="Op_HvRspV4cMSqSuF1tA-26" edge="1">
          <mxGeometry width="50" height="50" relative="1" as="geometry">
            <mxPoint x="820" y="840" as="sourcePoint" />
            <mxPoint x="870" y="790" as="targetPoint" />
          </mxGeometry>
        </mxCell>
        <mxCell id="Op_HvRspV4cMSqSuF1tA-28" value="Multiple Footage" style="text;html=1;strokeColor=#82b366;fillColor=#d5e8d4;align=center;verticalAlign=middle;whiteSpace=wrap;rounded=0;" parent="Op_HvRspV4cMSqSuF1tA-1" vertex="1">
          <mxGeometry x="360" y="680" width="120" height="80" as="geometry" />
        </mxCell>
        <mxCell id="Op_HvRspV4cMSqSuF1tA-29" value="D" style="text;html=1;strokeColor=#82b366;fillColor=#d5e8d4;align=center;verticalAlign=middle;whiteSpace=wrap;rounded=0;" parent="Op_HvRspV4cMSqSuF1tA-1" vertex="1">
          <mxGeometry x="320" y="680" width="40" height="80" as="geometry" />
        </mxCell>
        <mxCell id="Op_HvRspV4cMSqSuF1tA-31" value="" style="endArrow=classic;html=1;entryX=0;entryY=0.5;entryDx=0;entryDy=0;exitX=1;exitY=0.5;exitDx=0;exitDy=0;" parent="Op_HvRspV4cMSqSuF1tA-1" edge="1">
          <mxGeometry width="50" height="50" relative="1" as="geometry">
            <mxPoint x="240" y="730" as="sourcePoint" />
            <mxPoint x="320" y="730" as="targetPoint" />
          </mxGeometry>
        </mxCell>
        <mxCell id="Op_HvRspV4cMSqSuF1tA-32" value="" style="endArrow=classic;html=1;entryX=0.25;entryY=1;entryDx=0;entryDy=0;exitX=0.25;exitY=0;exitDx=0;exitDy=0;" parent="Op_HvRspV4cMSqSuF1tA-1" source="Op_HvRspV4cMSqSuF1tA-26" target="Op_HvRspV4cMSqSuF1tA-10" edge="1">
          <mxGeometry width="50" height="50" relative="1" as="geometry">
            <mxPoint x="290" y="650" as="sourcePoint" />
            <mxPoint x="340" y="600" as="targetPoint" />
          </mxGeometry>
        </mxCell>
        <mxCell id="Op_HvRspV4cMSqSuF1tA-33" value="" style="endArrow=classic;html=1;exitX=0.75;exitY=1;exitDx=0;exitDy=0;entryX=0.75;entryY=0;entryDx=0;entryDy=0;" parent="Op_HvRspV4cMSqSuF1tA-1" source="Op_HvRspV4cMSqSuF1tA-10" target="Op_HvRspV4cMSqSuF1tA-26" edge="1">
          <mxGeometry width="50" height="50" relative="1" as="geometry">
            <mxPoint x="290" y="650" as="sourcePoint" />
            <mxPoint x="420" y="660" as="targetPoint" />
          </mxGeometry>
        </mxCell>
        <mxCell id="Op_HvRspV4cMSqSuF1tA-34" value="Footage Information" style="text;html=1;strokeColor=none;fillColor=none;align=center;verticalAlign=middle;whiteSpace=wrap;rounded=0;" parent="Op_HvRspV4cMSqSuF1tA-1" vertex="1">
          <mxGeometry x="280" y="630" width="80" height="20" as="geometry" />
        </mxCell>
        <mxCell id="Op_HvRspV4cMSqSuF1tA-35" value="" style="endArrow=classic;html=1;entryX=0.5;entryY=0;entryDx=0;entryDy=0;exitX=0.5;exitY=1;exitDx=0;exitDy=0;" parent="Op_HvRspV4cMSqSuF1tA-1" source="Op_HvRspV4cMSqSuF1tA-26" target="Op_HvRspV4cMSqSuF1tA-12" edge="1">
          <mxGeometry width="50" height="50" relative="1" as="geometry">
            <mxPoint x="290" y="850" as="sourcePoint" />
            <mxPoint x="340" y="800" as="targetPoint" />
          </mxGeometry>
        </mxCell>
        <mxCell id="Op_HvRspV4cMSqSuF1tA-36" value="Preprocessed Frames" style="text;html=1;strokeColor=none;fillColor=none;align=center;verticalAlign=middle;whiteSpace=wrap;rounded=0;" parent="Op_HvRspV4cMSqSuF1tA-1" vertex="1">
          <mxGeometry x="400" y="770" width="80" height="20" as="geometry" />
        </mxCell>
        <mxCell id="Op_HvRspV4cMSqSuF1tA-37" value="Extracted and Reshaped Frames" style="text;html=1;strokeColor=none;fillColor=none;align=center;verticalAlign=middle;whiteSpace=wrap;rounded=0;" parent="Op_HvRspV4cMSqSuF1tA-1" vertex="1">
          <mxGeometry x="440" y="630" width="80" height="20" as="geometry" />
        </mxCell>
        <mxCell id="Op_HvRspV4cMSqSuF1tA-38" value="" style="rounded=0;whiteSpace=wrap;html=1;" parent="Op_HvRspV4cMSqSuF1tA-1" vertex="1">
          <mxGeometry x="80" y="800" width="160" height="80" as="geometry" />
        </mxCell>
        <mxCell id="Op_HvRspV4cMSqSuF1tA-39" value="" style="endArrow=none;html=1;entryX=0.25;entryY=0;entryDx=0;entryDy=0;exitX=0.25;exitY=1;exitDx=0;exitDy=0;" parent="Op_HvRspV4cMSqSuF1tA-1" source="Op_HvRspV4cMSqSuF1tA-38" target="Op_HvRspV4cMSqSuF1tA-38" edge="1">
          <mxGeometry width="50" height="50" relative="1" as="geometry">
            <mxPoint x="580" y="960" as="sourcePoint" />
            <mxPoint x="630" y="910" as="targetPoint" />
          </mxGeometry>
        </mxCell>
        <mxCell id="Op_HvRspV4cMSqSuF1tA-40" value="Temporary Detection Result" style="text;html=1;strokeColor=#82b366;fillColor=#d5e8d4;align=center;verticalAlign=middle;whiteSpace=wrap;rounded=0;" parent="Op_HvRspV4cMSqSuF1tA-1" vertex="1">
          <mxGeometry x="120" y="800" width="120" height="80" as="geometry" />
        </mxCell>
        <mxCell id="Op_HvRspV4cMSqSuF1tA-41" value="T" style="text;html=1;strokeColor=#82b366;fillColor=#d5e8d4;align=center;verticalAlign=middle;whiteSpace=wrap;rounded=0;" parent="Op_HvRspV4cMSqSuF1tA-1" vertex="1">
          <mxGeometry x="80" y="800" width="40" height="80" as="geometry" />
        </mxCell>
        <mxCell id="Op_HvRspV4cMSqSuF1tA-42" value="" style="endArrow=classic;html=1;entryX=1;entryY=0.5;entryDx=0;entryDy=0;exitX=0;exitY=0.5;exitDx=0;exitDy=0;" parent="Op_HvRspV4cMSqSuF1tA-1" source="Op_HvRspV4cMSqSuF1tA-12" target="Op_HvRspV4cMSqSuF1tA-40" edge="1">
          <mxGeometry width="50" height="50" relative="1" as="geometry">
            <mxPoint x="290" y="840" as="sourcePoint" />
            <mxPoint x="320" y="620" as="targetPoint" />
          </mxGeometry>
        </mxCell>
        <mxCell id="Op_HvRspV4cMSqSuF1tA-43" value="Detection Confidence Score" style="text;html=1;strokeColor=none;fillColor=none;align=center;verticalAlign=middle;whiteSpace=wrap;rounded=0;" parent="Op_HvRspV4cMSqSuF1tA-1" vertex="1">
          <mxGeometry x="240" y="800" width="80" height="20" as="geometry" />
        </mxCell>
        <mxCell id="Op_HvRspV4cMSqSuF1tA-44" value="" style="endArrow=classic;html=1;entryX=0.5;entryY=1;entryDx=0;entryDy=0;exitX=0;exitY=0.5;exitDx=0;exitDy=0;rounded=0;" parent="Op_HvRspV4cMSqSuF1tA-1" source="Op_HvRspV4cMSqSuF1tA-41" target="Op_HvRspV4cMSqSuF1tA-6" edge="1">
          <mxGeometry width="50" height="50" relative="1" as="geometry">
            <mxPoint x="150" y="710" as="sourcePoint" />
            <mxPoint x="200" y="660" as="targetPoint" />
            <Array as="points">
              <mxPoint x="-80" y="840" />
            </Array>
          </mxGeometry>
        </mxCell>
        <mxCell id="Op_HvRspV4cMSqSuF1tA-45" value="Detection Result" style="text;html=1;strokeColor=none;fillColor=none;align=center;verticalAlign=middle;whiteSpace=wrap;rounded=0;" parent="Op_HvRspV4cMSqSuF1tA-1" vertex="1">
          <mxGeometry x="-80" y="810" width="160" height="20" as="geometry" />
        </mxCell>
        <mxCell id="Op_HvRspV4cMSqSuF1tA-48" value="" style="endArrow=classic;html=1;entryX=0.5;entryY=0;entryDx=0;entryDy=0;exitX=0.342;exitY=1;exitDx=0;exitDy=0;exitPerimeter=0;" parent="Op_HvRspV4cMSqSuF1tA-1" source="Op_HvRspV4cMSqSuF1tA-40" target="Op_HvRspV4cMSqSuF1tA-16" edge="1">
          <mxGeometry width="50" height="50" relative="1" as="geometry">
            <mxPoint x="160" y="920" as="sourcePoint" />
            <mxPoint x="160" y="800" as="targetPoint" />
          </mxGeometry>
        </mxCell>
        <mxCell id="Op_HvRspV4cMSqSuF1tA-50" value="" style="endArrow=classic;html=1;entryX=0;entryY=0.5;entryDx=0;entryDy=0;exitX=0;exitY=0.5;exitDx=0;exitDy=0;rounded=0;" parent="Op_HvRspV4cMSqSuF1tA-1" source="Op_HvRspV4cMSqSuF1tA-19" target="Op_HvRspV4cMSqSuF1tA-23" edge="1">
          <mxGeometry width="50" height="50" relative="1" as="geometry">
            <mxPoint x="-120" y="1060" as="sourcePoint" />
            <mxPoint x="-470" y="820" as="targetPoint" />
            <Array as="points">
              <mxPoint x="-480" y="1170" />
              <mxPoint x="-480" y="560" />
            </Array>
          </mxGeometry>
        </mxCell>
        <mxCell id="Op_HvRspV4cMSqSuF1tA-51" value="0" style="swimlane;fillColor=#dae8fc;strokeColor=#6c8ebf;" parent="Op_HvRspV4cMSqSuF1tA-1" vertex="1">
          <mxGeometry x="-160" y="520" width="160" height="80" as="geometry" />
        </mxCell>
        <mxCell id="Op_HvRspV4cMSqSuF1tA-52" value="Automated Road Accident Monitoring and Alarm System&amp;nbsp;" style="text;html=1;strokeColor=#6c8ebf;fillColor=#dae8fc;align=center;verticalAlign=middle;whiteSpace=wrap;rounded=0;" parent="Op_HvRspV4cMSqSuF1tA-51" vertex="1">
          <mxGeometry y="20" width="160" height="60" as="geometry" />
        </mxCell>
        <mxCell id="Op_HvRspV4cMSqSuF1tA-53" value="" style="endArrow=classic;html=1;entryX=0.25;entryY=1;entryDx=0;entryDy=0;exitX=0.25;exitY=0;exitDx=0;exitDy=0;" parent="Op_HvRspV4cMSqSuF1tA-1" source="Op_HvRspV4cMSqSuF1tA-6" target="Op_HvRspV4cMSqSuF1tA-51" edge="1">
          <mxGeometry width="50" height="50" relative="1" as="geometry">
            <mxPoint x="40" y="540" as="sourcePoint" />
            <mxPoint x="90" y="490" as="targetPoint" />
          </mxGeometry>
        </mxCell>
        <mxCell id="Op_HvRspV4cMSqSuF1tA-54" value="" style="endArrow=classic;html=1;exitX=0.75;exitY=1;exitDx=0;exitDy=0;entryX=0.75;entryY=0;entryDx=0;entryDy=0;" parent="Op_HvRspV4cMSqSuF1tA-1" source="Op_HvRspV4cMSqSuF1tA-51" target="Op_HvRspV4cMSqSuF1tA-6" edge="1">
          <mxGeometry width="50" height="50" relative="1" as="geometry">
            <mxPoint x="40" y="540" as="sourcePoint" />
            <mxPoint x="90" y="490" as="targetPoint" />
          </mxGeometry>
        </mxCell>
        <mxCell id="Op_HvRspV4cMSqSuF1tA-55" value="" style="endArrow=classic;html=1;exitX=1;exitY=0.25;exitDx=0;exitDy=0;entryX=0;entryY=0;entryDx=0;entryDy=0;" parent="Op_HvRspV4cMSqSuF1tA-1" source="Op_HvRspV4cMSqSuF1tA-23" target="Op_HvRspV4cMSqSuF1tA-52" edge="1">
          <mxGeometry width="50" height="50" relative="1" as="geometry">
            <mxPoint x="-80" y="510" as="sourcePoint" />
            <mxPoint x="-30" y="460" as="targetPoint" />
          </mxGeometry>
        </mxCell>
        <mxCell id="Op_HvRspV4cMSqSuF1tA-56" value="" style="endArrow=classic;html=1;entryX=1;entryY=0.75;entryDx=0;entryDy=0;exitX=0;exitY=0.75;exitDx=0;exitDy=0;" parent="Op_HvRspV4cMSqSuF1tA-1" source="Op_HvRspV4cMSqSuF1tA-51" target="Op_HvRspV4cMSqSuF1tA-23" edge="1">
          <mxGeometry width="50" height="50" relative="1" as="geometry">
            <mxPoint x="-190" y="580" as="sourcePoint" />
            <mxPoint x="-30" y="460" as="targetPoint" />
          </mxGeometry>
        </mxCell>
        <mxCell id="Op_HvRspV4cMSqSuF1tA-57" value="Footage Information" style="text;html=1;strokeColor=none;align=center;verticalAlign=middle;whiteSpace=wrap;rounded=0;fillColor=#ffffff;" parent="Op_HvRspV4cMSqSuF1tA-1" vertex="1">
          <mxGeometry x="-240" y="500" width="80" height="20" as="geometry" />
        </mxCell>
        <mxCell id="Op_HvRspV4cMSqSuF1tA-58" value="" style="endArrow=classic;html=1;entryX=0.5;entryY=0;entryDx=0;entryDy=0;exitX=0.5;exitY=1;exitDx=0;exitDy=0;" parent="Op_HvRspV4cMSqSuF1tA-1" source="Op_HvRspV4cMSqSuF1tA-17" target="Op_HvRspV4cMSqSuF1tA-18" edge="1">
          <mxGeometry width="50" height="50" relative="1" as="geometry">
            <mxPoint x="130" y="1030" as="sourcePoint" />
            <mxPoint x="180" y="980" as="targetPoint" />
          </mxGeometry>
        </mxCell>
        <mxCell id="Op_HvRspV4cMSqSuF1tA-59" value="Responders (DRRMO and Police Enforcers)" style="rounded=0;whiteSpace=wrap;html=1;fillColor=#f5f5f5;strokeColor=#666666;fontColor=#333333;" parent="Op_HvRspV4cMSqSuF1tA-1" vertex="1">
          <mxGeometry x="-400" y="960" width="160" height="80" as="geometry" />
        </mxCell>
        <mxCell id="Op_HvRspV4cMSqSuF1tA-61" value="Detection Details and Result" style="text;html=1;strokeColor=none;align=center;verticalAlign=middle;whiteSpace=wrap;rounded=0;fillColor=#ffffff;" parent="Op_HvRspV4cMSqSuF1tA-1" vertex="1">
          <mxGeometry x="80" y="910" width="160" height="20" as="geometry" />
        </mxCell>
        <mxCell id="Op_HvRspV4cMSqSuF1tA-63" value="SMS Message and Alert Call" style="text;html=1;strokeColor=none;fillColor=none;align=center;verticalAlign=middle;whiteSpace=wrap;rounded=0;" parent="Op_HvRspV4cMSqSuF1tA-1" vertex="1">
          <mxGeometry x="-240" y="970" width="80" height="20" as="geometry" />
        </mxCell>
        <mxCell id="7EraygBnMwyGzSxRPvDZ-0" style="edgeStyle=orthogonalEdgeStyle;rounded=0;orthogonalLoop=1;jettySize=auto;html=1;exitX=0.5;exitY=1;exitDx=0;exitDy=0;" parent="Op_HvRspV4cMSqSuF1tA-1" source="Op_HvRspV4cMSqSuF1tA-63" target="Op_HvRspV4cMSqSuF1tA-63" edge="1">
          <mxGeometry relative="1" as="geometry" />
        </mxCell>
        <mxCell id="VmckzrXoXZw-9TH6255g-0" value="Alarm Notification" style="text;html=1;strokeColor=none;align=center;verticalAlign=middle;whiteSpace=wrap;rounded=0;fillColor=#ffffff;" parent="Op_HvRspV4cMSqSuF1tA-1" vertex="1">
          <mxGeometry x="-240" y="1140" width="120" height="20" as="geometry" />
        </mxCell>
        <mxCell id="VmckzrXoXZw-9TH6255g-1" value="Accident Details" style="text;html=1;strokeColor=none;fillColor=none;align=center;verticalAlign=middle;whiteSpace=wrap;rounded=0;" parent="Op_HvRspV4cMSqSuF1tA-1" vertex="1">
          <mxGeometry y="980" width="80" height="20" as="geometry" />
        </mxCell>
        <mxCell id="VmckzrXoXZw-9TH6255g-3" value="" style="endArrow=classic;html=1;entryX=1;entryY=0.5;entryDx=0;entryDy=0;exitX=0;exitY=0.5;exitDx=0;exitDy=0;" parent="Op_HvRspV4cMSqSuF1tA-1" source="Op_HvRspV4cMSqSuF1tA-17" target="Op_HvRspV4cMSqSuF1tA-15" edge="1">
          <mxGeometry width="50" height="50" relative="1" as="geometry">
            <mxPoint x="100" y="900" as="sourcePoint" />
            <mxPoint x="150" y="850" as="targetPoint" />
          </mxGeometry>
        </mxCell>
        <mxCell id="VmckzrXoXZw-9TH6255g-4" value="" style="endArrow=classic;html=1;entryX=1;entryY=0.5;entryDx=0;entryDy=0;exitX=0;exitY=0.5;exitDx=0;exitDy=0;" parent="Op_HvRspV4cMSqSuF1tA-1" edge="1">
          <mxGeometry width="50" height="50" relative="1" as="geometry">
            <mxPoint x="-160" y="1010" as="sourcePoint" />
            <mxPoint x="-240" y="1010" as="targetPoint" />
          </mxGeometry>
        </mxCell>
        <mxCell id="i4N2TsipL_qzMVppMzyy-0" value="Alarm Sound and Components Indicator" style="text;html=1;strokeColor=none;align=center;verticalAlign=middle;whiteSpace=wrap;rounded=0;fillColor=#ffffff;" parent="Op_HvRspV4cMSqSuF1tA-1" vertex="1">
          <mxGeometry x="-260" y="1140" width="160" height="20" as="geometry" />
        </mxCell>
        <mxCell id="G44N8t-mqdh67H21AoVY-0" value="Detection Information / Main GUI" style="text;html=1;strokeColor=none;align=center;verticalAlign=middle;whiteSpace=wrap;rounded=0;fillColor=#ffffff;" parent="Op_HvRspV4cMSqSuF1tA-1" vertex="1">
          <mxGeometry x="-235" y="630" width="110" height="20" as="geometry" />
        </mxCell>
        <mxCell id="M33h25st539T0lpM37jp-0" value="Footage Assignments" style="text;html=1;strokeColor=none;fillColor=none;align=center;verticalAlign=middle;whiteSpace=wrap;rounded=0;" parent="Op_HvRspV4cMSqSuF1tA-1" vertex="1">
          <mxGeometry y="690" width="80" height="20" as="geometry" />
        </mxCell>
        <mxCell id="ye-dejU_7SH4DVWCPe6K-0" value="Footage Placement numbers" style="text;html=1;strokeColor=none;fillColor=none;align=center;verticalAlign=middle;whiteSpace=wrap;rounded=0;" parent="Op_HvRspV4cMSqSuF1tA-1" vertex="1">
          <mxGeometry x="240" y="690" width="80" height="20" as="geometry" />
        </mxCell>
        <mxCell id="q0j1-6YD5HyooWqcil4h-0" value="Detection Signal" style="text;html=1;strokeColor=none;align=center;verticalAlign=middle;whiteSpace=wrap;rounded=0;fillColor=#ffffff;" parent="Op_HvRspV4cMSqSuF1tA-1" vertex="1">
          <mxGeometry x="100" y="1060" width="120" height="20" as="geometry" />
        </mxCell>
      </root>
    </mxGraphModel>
  </diagram>
</mxfile>
